# Blender 5.2.2 LTS
# www.blender.org
mtllib str2.mtl
o 9K32M_Strela-2M_1_Launch_Tube_1_9K32M_Strela-2M_1_Material_1_0.002
v -0.012627 0.096554 0.036454
v 0.012627 0.093417 0.067755
v -0.012627 0.093417 0.039439
v -0.012627 0.093417 0.067755
v 0.004961 0.058431 0.067755
v -0.004961 0.074029 0.067755
v -0.004961 0.058431 0.067755
v 0.004961 0.074029 0.067755
v 0.016316 0.043002 0.267372
v 0.000000 0.036244 0.267372
v -0.023074 0.059317 0.267371
v -0.016316 0.075633 0.267371
v 0.023074 0.059317 0.267371
v 0.016316 0.075633 0.267371
v -0.016316 0.043002 0.267371
v 0.000000 0.082391 0.267371
v 0.012627 0.096554 0.036454
v 0.012627 0.093417 0.039439
v -0.012627 0.058431 0.067755
v 0.012627 0.058431 0.067755
v -0.013286 0.049750 0.029802
v 0.019498 0.071033 0.012007
v -0.019498 0.066163 0.017146
v 0.019498 0.066163 0.058202
v 0.012637 0.066163 0.058202
v -0.012637 0.066163 0.058202
v -0.019498 0.066163 0.058202
v -0.012637 0.049750 0.034842
v 0.012637 0.066163 0.036908
v -0.013286 0.049750 0.017146
v 0.019498 0.075711 0.045388
v 0.019498 0.077922 0.040635
v 0.019498 0.083342 0.040635
v 0.019498 0.066163 0.050245
v 0.019498 0.068240 0.047215
v 0.019498 0.071097 0.047215
v 0.019498 0.049750 0.017146
v 0.019498 0.067801 0.032726
v 0.019498 0.065420 0.030117
v 0.019498 0.073244 0.027109
v 0.019498 0.065420 0.017146
v 0.019498 0.067376 0.020735
v 0.019498 0.083341 0.014612
v 0.019498 0.073244 0.032726
v 0.019498 0.067376 0.015306
v 0.019498 0.080643 0.012007
v -0.019498 0.049750 0.017146
v 0.015877 0.049750 0.036908
v 0.012637 0.049750 0.036908
v 0.015877 0.049750 0.017146
v -0.012637 0.066163 0.034842
v 0.018647 0.073200 0.039200
v 0.019498 0.073200 0.039200
v 0.019498 0.074408 0.038699
v 0.018647 0.072601 0.040646
v 0.019498 0.073200 0.042093
v 0.019498 0.072601 0.040646
v 0.018647 0.073200 0.042093
v 0.019498 0.074647 0.042692
v 0.018647 0.076093 0.042093
v 0.019498 0.076093 0.042093
v 0.019498 0.075145 0.042486
v 0.019498 0.076693 0.040646
v 0.018647 0.076693 0.040646
v 0.019498 0.076093 0.039200
v 0.018647 0.076093 0.039200
v 0.019498 0.074647 0.038600
v 0.018647 0.074647 0.038600
v 0.017054 0.059248 0.031435
v 0.019498 0.061595 0.030463
v 0.017054 0.061595 0.030463
v 0.017054 0.058275 0.033782
v 0.019498 0.059248 0.031435
v 0.019498 0.059248 0.036129
v 0.019498 0.058275 0.033782
v 0.017054 0.061595 0.037102
v 0.017054 0.059248 0.036129
v 0.017054 0.063942 0.036129
v 0.019498 0.061595 0.037102
v 0.017054 0.064914 0.033782
v 0.019498 0.063942 0.036129
v 0.017054 0.063942 0.031435
v 0.019498 0.064914 0.033782
v 0.019498 0.063942 0.031435
v 0.017054 0.062436 0.034623
v 0.019140 0.062784 0.033782
v 0.017054 0.062784 0.033782
v 0.017767 0.072035 0.016297
v 0.019498 0.075146 0.015008
v 0.017767 0.075146 0.015008
v 0.017767 0.070747 0.019408
v 0.019498 0.072035 0.016297
v 0.017767 0.072035 0.022519
v 0.019498 0.070747 0.019408
v 0.017767 0.075146 0.023807
v 0.019498 0.075146 0.023807
v 0.019498 0.074910 0.023709
v 0.017767 0.078257 0.022519
v 0.017767 0.079546 0.019408
v 0.019498 0.078257 0.022519
v 0.019498 0.078257 0.016297
v 0.019498 0.079546 0.019408
v 0.017767 0.078257 0.016297
v 0.019498 0.075146 0.021512
v 0.017767 0.076634 0.020896
v 0.017767 0.075146 0.021512
v 0.017767 0.075146 0.017304
v 0.017767 0.073658 0.017920
v 0.017767 0.073042 0.019408
v 0.017767 0.073658 0.020896
v 0.017767 0.077250 0.019408
v 0.017767 0.076634 0.017920
v 0.019498 0.073042 0.019408
v 0.019498 0.075146 0.017304
v 0.019498 0.076634 0.020896
v 0.019498 0.073658 0.017920
v 0.019498 0.077250 0.019408
v -0.012637 0.049750 0.051848
v -0.019498 0.056104 0.058202
v -0.019498 0.049750 0.051848
v 0.019498 0.056104 0.058202
v 0.012637 0.056104 0.058202
v 0.012637 0.049750 0.051848
v -0.012637 0.056104 0.058202
v 0.019498 0.049750 0.051848
v 0.017054 0.060753 0.032941
v 0.017054 0.061595 0.032593
v 0.017054 0.060405 0.033782
v 0.017054 0.061595 0.034972
v 0.017054 0.060753 0.034623
v 0.017054 0.062436 0.032941
v 0.019140 0.062436 0.032941
v 0.019140 0.062436 0.034623
v 0.019140 0.060753 0.034623
v 0.019140 0.061595 0.034972
v 0.019140 0.060753 0.032941
v 0.019140 0.060405 0.033782
v 0.019140 0.061595 0.032593
v 0.019903 0.060768 0.042548
v 0.015812 0.057278 0.043994
v 0.015812 0.060768 0.042548
v 0.019903 0.057278 0.043994
v 0.015812 0.055832 0.047484
v 0.019903 0.055832 0.047484
v 0.015812 0.057278 0.050974
v 0.019903 0.057278 0.050974
v 0.015812 0.060768 0.052419
v 0.019903 0.060768 0.052419
v 0.015812 0.064258 0.050974
v 0.019903 0.064258 0.050974
v 0.015812 0.065703 0.047484
v 0.019903 0.065703 0.047484
v 0.015812 0.064258 0.043994
v 0.015812 0.064939 0.047484
v -0.015812 0.063717 0.044534
v -0.015812 0.064939 0.047484
v 0.015812 0.057818 0.044534
v 0.015812 0.056597 0.047484
v 0.015812 0.057818 0.050433
v 0.015812 0.060768 0.051655
v 0.015812 0.063717 0.050433
v 0.015812 0.063717 0.044534
v 0.015812 0.060768 0.043313
v -0.015812 0.063717 0.050433
v -0.015812 0.060768 0.051655
v -0.015812 0.057818 0.050433
v -0.015812 0.056597 0.047484
v -0.015812 0.060768 0.043313
v -0.015812 0.057818 0.044534
v -0.015812 0.057278 0.043994
v -0.019903 0.060768 0.042548
v -0.015812 0.060768 0.042548
v -0.015812 0.055832 0.047484
v -0.019903 0.057278 0.043994
v -0.015812 0.057278 0.050974
v -0.019903 0.055832 0.047484
v -0.015812 0.060768 0.052419
v -0.019903 0.057278 0.050974
v -0.015812 0.064258 0.050974
v -0.019903 0.060768 0.052419
v -0.015812 0.065703 0.047484
v -0.019903 0.064258 0.050974
v -0.019903 0.064258 0.043994
v -0.015812 0.064258 0.043994
v -0.019903 0.065703 0.047484
v -0.018735 0.060180 0.022367
v 0.023803 0.057903 0.023310
v -0.018735 0.057903 0.023310
v -0.018735 0.056959 0.025587
v 0.023803 0.056959 0.025587
v -0.018735 0.057903 0.027865
v 0.023803 0.057903 0.027865
v -0.018735 0.060180 0.028808
v 0.023803 0.060180 0.028808
v -0.018735 0.062457 0.027865
v 0.023803 0.062457 0.027865
v -0.018735 0.063401 0.025587
v 0.023803 0.060180 0.022367
v 0.023803 0.063401 0.025587
v -0.018735 0.062457 0.023310
v -0.018735 0.063775 0.029182
v -0.020705 0.065264 0.025587
v -0.020705 0.063775 0.029182
v -0.018735 0.056585 0.021993
v -0.018735 0.055096 0.025587
v -0.018735 0.056585 0.029182
v -0.018735 0.060180 0.030671
v -0.018735 0.065264 0.025587
v -0.018735 0.063775 0.021993
v -0.018735 0.060180 0.020504
v -0.020705 0.063775 0.021993
v -0.020705 0.056585 0.021993
v -0.020705 0.056585 0.029182
v -0.020705 0.055096 0.025587
v -0.020705 0.060180 0.030671
v -0.020705 0.060180 0.020504
v -0.020744 0.072799 0.016425
v -0.018925 0.069102 0.017956
v -0.020744 0.069102 0.017956
v -0.020744 0.067571 0.021653
v -0.018925 0.067571 0.021653
v -0.020744 0.069102 0.025350
v -0.018925 0.069102 0.025350
v -0.020744 0.072799 0.026881
v -0.018925 0.072799 0.026881
v -0.020744 0.076496 0.025350
v -0.018925 0.076496 0.025350
v -0.020744 0.078027 0.021653
v -0.018925 0.072799 0.016425
v -0.018925 0.078027 0.021653
v -0.020744 0.076496 0.017956
v -0.022065 0.076756 0.021653
v -0.022065 0.075597 0.024451
v -0.022065 0.075597 0.018855
v -0.022065 0.068842 0.021653
v -0.022065 0.070001 0.018855
v -0.022065 0.072799 0.025610
v -0.022065 0.072799 0.017696
v -0.022065 0.070001 0.024451
v 0.020034 0.071381 0.041626
v 0.019252 0.070559 0.041967
v 0.019252 0.071381 0.041626
v 0.020034 0.070559 0.041967
v 0.019252 0.070218 0.042789
v 0.020034 0.070218 0.042789
v 0.019252 0.070559 0.043611
v 0.020034 0.070559 0.043611
v 0.019252 0.071381 0.043952
v 0.020034 0.071381 0.043952
v 0.019252 0.072203 0.043611
v 0.020034 0.072203 0.043611
v 0.019252 0.072544 0.042789
v 0.020034 0.072544 0.042789
v 0.019252 0.072203 0.041967
v 0.020034 0.072203 0.041967
v 0.027427 0.080826 -0.303299
v 0.022932 0.074652 -0.300742
v 0.022932 0.080826 -0.303299
v 0.027427 0.074652 -0.300742
v 0.022932 0.072095 -0.294569
v 0.027427 0.074652 -0.288395
v 0.022932 0.074652 -0.288395
v 0.027427 0.080826 -0.285838
v 0.022932 0.080826 -0.285838
v 0.022932 0.087000 -0.288395
v 0.027427 0.087000 -0.288395
v 0.022932 0.089557 -0.294569
v 0.027427 0.089557 -0.294569
v 0.022932 0.087000 -0.300742
v 0.027427 0.087000 -0.300742
v 0.018647 0.074647 0.042692
v 0.019498 0.072035 0.022519
v 0.019498 0.073658 0.020896
v 0.019498 0.076634 0.017920
v 0.019903 0.064258 0.043994
v 0.023803 0.062457 0.023310
v -0.018925 0.076496 0.017956
v 0.027427 0.072095 -0.294569
v 0.012627 0.058431 0.064593
v 0.004961 0.058431 0.064593
v 0.012627 0.054023 0.064593
v 0.004961 0.054023 0.040298
v 0.012627 0.058276 0.036454
v 0.012627 0.054023 0.040298
v 0.004961 0.054023 0.064593
v 0.012627 0.054023 0.050917
v 0.012627 0.060768 0.052165
v 0.012627 0.064078 0.050794
v -0.004961 0.074029 0.036454
v -0.012627 0.064078 0.044173
v -0.012627 0.065450 0.047484
v -0.004961 0.054023 0.041370
v -0.012627 0.054023 0.040298
v -0.004961 0.054023 0.040298
v -0.012627 0.058276 0.036454
v -0.004961 0.058276 0.036454
v 0.004961 0.074029 0.036454
v -0.012627 0.058431 0.064593
v -0.004961 0.058431 0.064593
v -0.004961 0.064078 0.050794
v -0.004961 0.065450 0.047484
v -0.004961 0.054023 0.064593
v -0.012627 0.054023 0.064593
v 0.004961 0.064078 0.044173
v 0.004961 0.065450 0.047484
v -0.012627 0.060768 0.052165
v -0.012627 0.064078 0.050794
v 0.004961 0.064078 0.050794
v 0.004961 0.060768 0.052165
v 0.004961 0.057753 0.050917
v 0.012627 0.057753 0.050917
v -0.004961 0.057753 0.050917
v -0.004961 0.060768 0.052165
v 0.012627 0.065450 0.047484
v -0.012627 0.060768 0.042802
v -0.004961 0.064078 0.044173
v 0.012627 0.060768 0.042802
v 0.004961 0.060768 0.042802
v 0.012627 0.064078 0.044173
v -0.012627 0.054023 0.050917
v -0.012627 0.057753 0.050917
v 0.004961 0.054023 0.050917
v -0.012627 0.059037 0.043519
v -0.004961 0.060768 0.042802
v 0.012627 0.059037 0.043519
v 0.004961 0.059037 0.043519
v 0.004961 0.054023 0.041370
v 0.012627 0.054023 0.041370
v -0.004961 0.059037 0.043519
v 0.023089 0.059317 0.258377
v 0.016329 0.042989 0.258378
v -0.023089 0.059317 0.258377
v 0.000000 0.038322 0.256245
v -0.017502 0.059317 0.236637
v -0.014846 0.074163 0.256245
v 0.014846 0.074163 0.256245
v 0.000000 0.080313 0.256245
v 0.014846 0.044472 0.256245
v -0.014846 0.044472 0.256245
v 0.000000 0.076832 0.256291
v -0.012376 0.046942 0.236637
v 0.012376 0.046942 0.236637
v 0.012376 0.071693 0.236637
v 0.000000 0.041816 0.236637
v 0.000000 0.076819 0.236637
v -0.012376 0.071693 0.236637
v 0.037256 0.076143 0.260766
v 0.039512 0.041494 0.261700
v 0.037256 0.041494 0.260766
v 0.039827 0.077354 0.262461
v 0.040447 0.086270 0.263956
v 0.040447 0.041494 0.263956
v 0.039827 0.077354 0.265451
v 0.039512 0.076811 0.266212
v 0.039512 0.041494 0.266212
v 0.037256 0.076143 0.267146
v 0.037256 0.041494 0.267146
v 0.035000 0.041494 0.266212
v 0.034686 0.077354 0.265451
v 0.034066 0.086270 0.263956
v 0.034066 0.041494 0.263956
v 0.034686 0.077354 0.262461
v 0.035000 0.076811 0.261700
v 0.035000 0.041494 0.261700
v 0.040376 0.039226 0.267076
v 0.034137 0.039226 0.260836
v 0.032844 0.031878 0.263956
v 0.032844 0.039226 0.263956
v 0.041668 0.039226 0.263956
v 0.040376 0.039226 0.260836
v 0.034137 0.039226 0.267076
v 0.037256 0.039226 0.268368
v 0.037256 0.039226 0.259544
v 0.034137 0.031878 0.260836
v 0.040376 0.031878 0.267076
v 0.037256 0.031878 0.268368
v 0.041668 0.031878 0.263956
v 0.037256 0.031878 0.259544
v 0.034137 0.031878 0.267076
v 0.040376 0.031878 0.260836
v 0.039827 0.086270 0.262460
v 0.035000 0.076811 0.266212
v 0.034686 0.086270 0.265451
v 0.039827 0.086270 0.265451
v 0.039512 0.076811 0.261700
v 0.004961 0.058276 0.036454
v -0.012627 0.054023 0.041370
v -0.004961 0.054023 0.050917
v -0.020995 0.059317 0.256245
v 0.020995 0.059317 0.256245
v 0.017502 0.059317 0.236637
v 0.034686 0.086270 0.262460
v 0.079757 0.201875 0.303783
v 0.070238 0.198977 0.304983
v 0.070238 0.201875 0.303783
v 0.079757 0.197776 0.307882
v 0.070238 0.197776 0.307882
v 0.070238 0.198977 0.310781
v 0.079757 0.201875 0.311982
v 0.070238 0.201875 0.311982
v 0.079757 0.204774 0.310781
v 0.070238 0.204774 0.310781
v 0.079757 0.205975 0.307882
v 0.070238 0.205975 0.307882
v 0.079757 0.201875 0.306374
v 0.082455 0.202942 0.306816
v 0.082455 0.201875 0.306374
v 0.070238 0.204774 0.304983
v 0.079757 0.204774 0.304983
v 0.079757 0.200809 0.306816
v 0.079757 0.198977 0.304983
v 0.079757 0.200809 0.308948
v 0.079757 0.200368 0.307882
v 0.079757 0.198977 0.310781
v 0.079757 0.201875 0.309390
v 0.079757 0.203383 0.307882
v 0.079757 0.202942 0.308948
v 0.079757 0.202942 0.306816
v 0.082455 0.201875 0.309390
v 0.082455 0.200809 0.308948
v 0.082455 0.200368 0.307882
v 0.082455 0.202942 0.308948
v 0.082455 0.203383 0.307882
v 0.082455 0.200809 0.306816
v 0.000000 0.036222 0.258379
v -0.016329 0.042989 0.258378
v 0.000000 0.082412 0.258379
v 0.016330 0.075647 0.258379
v -0.016329 0.075646 0.258378
v 0.012383 0.046934 0.256287
v 0.017515 0.059317 0.256293
v 0.000000 0.041802 0.256295
v -0.017515 0.059317 0.256295
v -0.012383 0.071700 0.256282
v 0.012385 0.071703 0.256297
v -0.012385 0.046932 0.256295
v 0.022010 0.062832 0.021252
v 0.022860 0.064003 0.021032
v 0.022010 0.064003 0.021032
v 0.022010 0.057528 0.029923
v 0.022860 0.056357 0.030143
v 0.022010 0.056357 0.030143
v 0.022860 0.055624 0.029410
v 0.022010 0.055624 0.029410
v 0.022010 0.064515 0.022936
v 0.022860 0.062681 0.021403
v 0.022860 0.062832 0.021252
v 0.022860 0.055453 0.020860
v 0.023221 0.053495 0.025587
v 0.023221 0.055453 0.020860
v 0.022860 0.055453 0.030314
v 0.022860 0.053495 0.025587
v 0.022860 0.060180 0.032272
v 0.023221 0.055453 0.030314
v 0.022860 0.064907 0.030314
v 0.023221 0.060180 0.032272
v 0.022860 0.066865 0.025587
v 0.023221 0.064907 0.030314
v 0.022860 0.064907 0.020860
v 0.023221 0.066865 0.025587
v 0.022860 0.060180 0.018903
v 0.023221 0.064907 0.020860
v 0.023221 0.060180 0.018903
v 0.023221 0.054736 0.020143
v 0.019348 0.052480 0.025587
v 0.019348 0.054736 0.020143
v 0.023221 0.052480 0.025587
v 0.019348 0.054736 0.031032
v 0.023221 0.060180 0.033287
v 0.019348 0.060180 0.033287
v 0.019348 0.065624 0.031032
v 0.023221 0.065624 0.031032
v 0.019348 0.067880 0.025587
v 0.019348 0.060180 0.017888
v 0.019348 0.061574 0.018465
v 0.020638 0.061574 0.018465
v 0.020638 0.073907 0.009762
v 0.021510 0.075778 0.011633
v 0.021510 0.074134 0.009989
v 0.020638 0.076005 0.011860
v 0.019348 0.067302 0.024193
v 0.020638 0.067302 0.024193
v 0.019348 0.073907 0.009762
v 0.021510 0.073227 0.010790
v 0.022114 0.070701 0.013316
v 0.022815 0.072451 0.015066
v 0.021510 0.075524 0.011994
v 0.023221 0.060180 0.017888
v 0.023221 0.064235 0.019568
v 0.023221 0.067880 0.025587
v 0.023221 0.066200 0.021532
v 0.026166 0.070244 0.014642
v 0.023221 0.070244 0.014642
v 0.023221 0.070432 0.014095
v 0.026166 0.080308 0.004578
v 0.021510 0.078982 0.005035
v 0.021510 0.080308 0.004578
v 0.026166 0.072451 0.015066
v 0.023221 0.071672 0.015335
v 0.021510 0.081189 0.005459
v 0.026166 0.080732 0.006786
v 0.026166 0.081189 0.005459
v 0.026166 0.071125 0.015524
v 0.026166 0.070701 0.013316
v 0.026166 0.078982 0.005035
v 0.023221 0.054736 0.031032
v 0.022010 0.064736 0.021765
v 0.022860 0.064736 0.021765
v 0.022860 0.064515 0.022936
v 0.022860 0.057679 0.029772
v 0.022010 0.055844 0.028239
v 0.022860 0.055844 0.028239
v 0.022860 0.057528 0.029923
v 0.019348 0.076005 0.011860
v 0.023221 0.071125 0.015524
v 0.021510 0.080732 0.006786
v -0.001422 0.069881 0.016909
v 0.001422 0.050830 0.016909
v -0.001422 0.050830 0.016909
v 0.001422 0.069881 0.027272
v 0.001422 0.050830 0.043955
v -0.004653 0.050830 0.048451
v 0.004653 0.037115 0.055554
v 0.004653 0.050830 0.048451
v 0.001422 0.069881 0.016909
v 0.001422 0.037115 0.050503
v 0.001422 0.026583 0.061714
v 0.001422 0.028000 0.058128
v -0.001422 0.037115 0.016909
v 0.001422 0.037115 0.016909
v -0.004653 0.026583 0.068657
v 0.004653 0.026583 0.068657
v -0.001422 0.023335 0.016909
v -0.001422 0.026583 0.061714
v -0.001422 0.028000 0.058128
v -0.001422 0.028000 0.054615
v -0.004653 0.028000 0.054615
v -0.004653 0.024339 0.052394
v 0.004653 0.024339 0.052394
v -0.004653 0.020790 0.040872
v 0.004653 0.020791 0.040872
v -0.001422 0.050830 0.043955
v -0.001422 0.037115 0.050503
v 0.004653 0.050830 0.043955
v -0.001422 0.069881 0.027272
v -0.004653 0.069881 0.030572
v 0.004653 0.069881 0.030572
v 0.001422 0.028000 0.054615
v 0.004653 0.029950 0.051399
v 0.001422 0.029950 0.051399
v -0.001422 0.028376 0.032738
v -0.001422 0.029595 0.029795
v 0.004653 0.026583 0.061714
v -0.001422 0.027469 0.039055
v -0.004653 0.026052 0.041949
v -0.001422 0.026052 0.041949
v 0.004653 0.018905 0.016909
v -0.004653 0.022519 0.038200
v -0.004653 0.018905 0.016909
v 0.004653 0.037115 0.050503
v 0.004653 0.022519 0.038200
v 0.004653 0.026052 0.041949
v 0.001422 0.026052 0.041949
v -0.004653 0.069881 0.027272
v 0.001422 0.023335 0.016909
v 0.004653 0.027469 0.039055
v 0.001422 0.027469 0.039055
v 0.004653 0.023335 0.016909
v -0.004653 0.050830 0.043955
v -0.004653 0.037115 0.050503
v -0.004653 0.037115 0.055554
v -0.004653 0.026583 0.061714
v -0.004653 0.023335 0.016909
v -0.004653 0.027469 0.039055
v -0.001422 0.029950 0.051399
v -0.004653 0.029950 0.051399
v 0.001422 0.035480 0.029795
v -0.001422 0.036699 0.032738
v -0.001422 0.035480 0.029795
v 0.001422 0.028376 0.032738
v 0.001422 0.036699 0.032738
v -0.001422 0.035480 0.035681
v 0.001422 0.029595 0.035681
v -0.001422 0.029595 0.035681
v -0.001422 0.032537 0.036899
v 0.001422 0.032537 0.028576
v -0.001422 0.032537 0.028576
v 0.001422 0.029595 0.029795
v 0.001422 0.035480 0.035681
v 0.001422 0.032537 0.036899
v 0.004653 0.028000 0.054615
v 0.004653 0.069881 0.027272
v 0.043174 0.164805 0.030341
v 0.038553 0.156197 0.030976
v 0.037020 0.156197 0.030341
v 0.044707 0.164805 0.030976
v 0.039188 0.156197 0.032509
v 0.044707 0.164805 0.034042
v 0.038553 0.156197 0.034042
v 0.043174 0.164805 0.034677
v 0.037020 0.156197 0.034677
v 0.041641 0.164805 0.034042
v 0.035487 0.156197 0.034042
v 0.041006 0.164805 0.032509
v 0.034852 0.156197 0.032509
v 0.048156 0.173373 0.040451
v 0.035487 0.156197 0.030976
v 0.041641 0.164805 0.030976
v 0.038553 0.150510 0.034042
v 0.035487 0.150510 0.034042
v 0.035487 0.150510 0.030976
v 0.048156 0.175282 0.036558
v 0.051113 0.180761 0.044652
v 0.052646 0.181200 0.044194
v 0.046623 0.175003 0.037128
v 0.045342 0.164805 0.032509
v 0.049689 0.175003 0.037128
v 0.050324 0.174328 0.038505
v 0.046623 0.173652 0.039881
v 0.049689 0.173652 0.039881
v 0.045988 0.174328 0.038505
v 0.051113 0.178640 0.046866
v 0.051510 0.184502 0.051527
v 0.050115 0.185143 0.050899
v 0.050478 0.179700 0.045759
v 0.052646 0.178200 0.047325
v 0.054179 0.180761 0.044652
v 0.054814 0.179700 0.045759
v 0.054179 0.178640 0.046866
v 0.049602 0.185576 0.049381
v 0.056270 0.192811 0.049145
v 0.050273 0.185547 0.047864
v 0.053641 0.183999 0.049381
v 0.052971 0.184028 0.050899
v 0.053129 0.184433 0.047864
v 0.051733 0.185074 0.047235
v 0.057394 0.191769 0.052846
v 0.058507 0.190715 0.052211
v 0.058964 0.190274 0.050678
v 0.056278 0.192820 0.052211
v 0.057382 0.191757 0.048510
v 0.058499 0.190706 0.049145
v 0.055812 0.193251 0.050678
v 0.037020 0.150510 0.030341
v 0.034852 0.150510 0.032509
v 0.037020 0.150510 0.034677
v 0.039188 0.150510 0.032509
v 0.038553 0.150510 0.030976
vn -0.0000 0.3827 0.9239
vn -0.0000 0.9239 0.3827
vn -0.0000 0.9239 -0.3827
vn 0.0001 0.3827 -0.9239
vn -0.0000 -0.3827 -0.9239
vn -0.0000 -0.9239 -0.3827
vn -0.0000 -0.9239 0.3827
vn -0.0000 -0.3827 0.9239
vn 1.0000 -0.0000 -0.0000
vn -0.0000 0.3827 -0.9239
vn -0.0000 0.3828 -0.9238
vn -0.0000 -0.7071 0.7071
vn -0.0000 -1.0000 -0.0000
vn -0.0000 -0.0000 1.0000
vn -1.0000 -0.0000 -0.0000
vn -0.6643 0.6906 -0.2860
vn -0.6643 -0.6906 -0.2860
vn -0.6643 0.2860 0.6906
vn -0.6643 0.2860 -0.6906
vn -0.6643 -0.2860 -0.6906
vn -0.6643 -0.6906 0.2860
vn -0.6643 0.6906 0.2860
vn -0.6643 -0.2860 0.6906
vn 0.0001 -0.3827 -0.9239
vn -0.0000 -0.6706 -0.7418
vn -0.0000 -0.0000 -1.0000
vn -0.0000 -0.3938 0.9192
vn -0.3827 -0.9239 -0.0000
vn -0.9239 -0.3827 -0.0000
vn -0.9239 0.3827 -0.0001
vn -0.3827 0.9239 -0.0001
vn -0.3827 0.9239 -0.0000
vn 0.3827 0.9239 -0.0001
vn 0.3827 0.9239 -0.0000
vn 0.9239 0.3827 0.0001
vn 0.9239 -0.3827 0.0001
vn 0.3827 -0.9239 -0.0001
vn 0.3827 -0.9239 -0.0000
vn -0.2840 0.6856 0.6704
vn 0.9238 -0.3829 0.0006
vn 0.6856 -0.2840 0.6703
vn -0.6855 -0.2840 0.6704
vn -0.6856 -0.2840 0.6704
vn 0.2840 0.6856 0.6704
vn 0.2840 -0.6856 0.6704
vn -0.2840 -0.6855 0.6704
vn -0.6856 0.2840 0.6703
vn 0.6855 0.2840 0.6704
vn 0.0001 -0.0000 1.0000
vn 0.3827 0.9239 0.0001
vn -0.3826 -0.9239 0.0002
vn 0.3828 -0.9238 0.0005
vn 0.9239 0.3827 -0.0000
vn 0.9239 0.3827 0.0003
vn -0.3827 0.9239 0.0002
vn -0.9239 -0.3827 0.0003
vn 0.3827 -0.0000 -0.9239
vn 0.9239 -0.0000 -0.3827
vn 0.9239 -0.0000 0.3827
vn 0.3827 -0.0000 0.9239
vn -0.3827 -0.0000 0.9239
vn -0.9239 -0.0000 0.3827
vn -0.9239 -0.0000 -0.3827
vn -0.3827 -0.0000 -0.9239
vn 0.3426 0.4456 0.8271
vn -0.8271 0.4456 -0.3426
vn 0.8271 0.4456 -0.3426
vn -0.3426 0.4456 0.8271
vn -0.3426 0.4456 -0.8271
vn 0.3426 0.4456 -0.8271
vn 0.8271 0.4456 0.3426
vn -0.8271 0.4456 0.3426
vn -0.0000 0.8137 0.5813
vn -0.0000 1.0000 -0.0000
vn 0.0001 0.8137 -0.5813
vn -0.3827 -0.9239 0.0001
vn -0.9239 -0.3827 -0.0001
vn -0.9239 0.3827 -0.0000
vn -0.2840 0.6856 0.6703
vn -0.2840 0.6855 0.6704
vn 0.9239 -0.3827 0.0005
vn 0.2840 0.6855 0.6704
vn 0.2839 0.6855 0.6704
vn 0.2839 -0.6855 0.6704
vn -0.2839 -0.6855 0.6704
vn 0.6856 0.2840 0.6702
vn 0.3827 0.9239 0.0003
vn 0.3827 0.9239 0.0006
vn -0.9239 0.3827 0.0003
vn -0.9239 0.3827 0.0001
vn 0.3827 -0.9239 -0.0002
vn 0.9239 0.3827 0.0006
vn -0.3827 0.9239 0.0005
vn -0.9239 -0.3827 0.0001
vn -0.0001 0.8137 -0.5813
vn -0.0000 0.8137 -0.5812
vn -0.0001 0.3827 -0.9239
vn -0.0000 0.3828 0.9239
vn -0.0000 0.1849 0.9827
vn -0.0000 -0.1849 -0.9827
vn -0.0000 0.7071 -0.7071
vn -0.0000 0.7071 0.7071
vn -0.0000 -0.5766 -0.8170
vn -0.0001 0.7071 -0.7071
vn -0.0001 0.8170 0.5766
vn 0.3445 -0.6214 -0.7037
vn 0.3131 0.7347 0.6018
vn -0.0000 -0.9454 -0.3259
vn -0.0000 -0.3259 -0.9454
vn -0.0000 0.3259 0.9454
vn -0.0000 0.9454 0.3259
vn -0.0000 -0.7071 -0.7071
vn -0.0000 -0.9828 -0.1849
vn -0.0000 0.9828 0.1849
vn 0.0001 -0.1849 -0.9828
vn -0.0001 0.7071 0.7071
vn 0.0001 -0.9239 -0.3827
vn -0.0000 0.8170 0.5766
vn 0.6937 -0.4357 -0.5735
vn 0.5816 -0.4690 -0.6646
vn 0.3406 0.7682 0.5421
vn 0.4361 0.7353 0.5189
vn 0.7078 0.5295 0.4676
vn -1.0000 0.0001 0.0002
vn -1.0000 -0.0002 -0.0001
vn -0.0000 0.4599 0.8880
vn -0.0000 0.7794 0.6265
vn -0.0000 -0.9300 -0.3676
vn -0.0000 -0.5185 0.8551
vn -0.0000 -0.9557 0.2943
vn -0.0000 -0.6588 -0.7523
vn -0.0000 0.6843 0.7292
vn -0.0000 0.8552 0.5183
vn -0.0000 -0.7288 -0.6847
vn -0.0000 0.8981 0.4399
vn -0.0000 -0.9859 0.1673
vn -0.0000 0.9244 -0.3813
vn -0.0000 -0.4308 -0.9024
vn -0.0000 0.9830 -0.1835
vn -0.0000 -0.8397 -0.5430
vn -0.0000 -0.5185 0.8550
vn 0.3691 -0.2639 -0.8911
vn 0.7709 -0.5511 -0.3193
vn 0.7709 -0.5511 0.3193
vn 0.3691 -0.2639 0.8911
vn -0.3691 0.2639 0.8911
vn -0.7709 0.5511 0.3193
vn 0.2923 -0.6455 0.7056
vn -0.7709 0.5511 -0.3193
vn -0.3691 0.2639 -0.8911
vn -0.3648 0.8275 -0.4268
vn -0.7632 0.5635 -0.3161
vn 0.8663 -0.1540 -0.4752
vn -0.3560 -0.3668 0.8595
vn -0.3729 0.5982 -0.7093
vn 0.3815 0.3337 -0.8620
vn 0.8307 -0.5444 0.1162
vn -0.8979 0.2355 0.3719
vn -0.5364 -0.5027 0.6779
vn -0.8801 0.1126 0.4613
vn 0.3075 -0.8614 0.4042
vn 0.8576 -0.0229 -0.5139
vn -0.7642 0.6439 -0.0367
vn -0.3694 -0.6275 0.6855
vn 0.8046 -0.5854 -0.0993
vn 0.3824 0.6094 -0.6946
vn -0.7014 0.6359 -0.3219
vn 0.9096 -0.0982 0.4037
vn 0.3823 0.6679 -0.6385
vn -0.3777 0.5151 -0.7694
vn -0.9304 -0.2827 0.2335
vn 0.1892 -0.5210 0.8323
vn 0.8959 0.4026 -0.1877
vn -0.9053 0.1153 -0.4088
vn 0.6867 0.7270 -0.0040
vn -0.3575 0.1289 0.9250
vn 0.6733 -0.6326 0.3827
vn 0.3844 -0.1428 -0.9121
vn -0.1987 0.3431 -0.9180
vn -0.7435 0.5334 0.4034
vn 0.2619 -0.3735 0.8899
vn 0.7425 -0.5512 -0.3808
vn 0.3666 -0.6474 0.6682
vn -0.3191 0.8349 -0.4485
vn -0.8419 0.5233 -0.1317
vn 0.9022 -0.2153 -0.3737
vn -0.3820 -0.3534 0.8539
vn -0.3070 0.5971 -0.7411
vn 0.3593 0.3439 -0.8675
vn 0.7482 -0.5866 0.3099
vn -0.8611 0.1682 0.4798
vn -0.3806 -0.5596 0.7362
vn -0.8519 0.0353 0.5225
vn 0.3579 -0.8533 0.3792
vn 0.8852 -0.0955 -0.4553
vn -0.8157 0.5728 0.0808
vn -0.3826 -0.6198 0.6852
vn 0.7515 -0.6594 0.0232
vn 0.3709 0.6157 -0.6953
vn -0.6856 0.6193 -0.3825
vn 0.9028 -0.1051 0.4171
vn 0.5411 0.5945 -0.5948
vn -0.1874 0.5244 -0.8306
vn -0.9231 -0.2949 0.2470
vn 0.3765 -0.4995 0.7802
vn 0.9090 0.3896 -0.1482
vn -0.9080 0.1133 -0.4034
vn 0.6866 0.7270 -0.0040
vn -0.3830 0.1445 0.9124
vn 0.6899 -0.6508 0.3171
vn 0.3585 -0.1266 -0.9249
vn -0.2620 0.3732 -0.8900
vn -0.7519 0.5387 0.3801
vn 0.1979 -0.3439 0.9179
vn 0.7341 -0.5459 -0.4038
vt 0.875000 0.500000
vt 0.875000 0.479510
vt 0.979328 0.479510
vt 0.750000 0.500000
vt 0.625000 0.479510
vt 0.750000 0.479510
vt 0.625000 0.500000
vt 0.500000 0.479510
vt 0.375000 0.500000
vt 0.375000 0.479510
vt 0.456929 0.479510
vt 0.250000 0.479510
vt 0.250000 0.500000
vt 0.125000 0.479510
vt 0.125000 0.500000
vt 0.000000 0.479510
vt 0.750000 0.510000
vt 0.580294 0.580294
vt 0.919706 0.919706
vt 1.000000 0.463714
vt 1.000000 0.500000
vt 0.875000 0.463714
vt 0.625000 0.463714
vt 0.750000 0.463714
vt 0.500000 0.500000
vt 0.500000 0.463714
vt 0.375000 0.463714
vt 0.250000 0.463714
vt 0.000000 0.463714
vt 0.125000 0.463714
vt 0.689179 0.810821
vt 0.663987 0.750000
vt 1.000000 0.461310
vt 0.875000 0.461310
vt 0.750000 0.461310
vt 0.500000 0.461310
vt 0.509493 0.461310
vt 0.375000 0.461310
vt 0.125000 0.461310
vt 0.250000 0.461310
vt 0.000000 0.500000
vt 0.750000 0.864784
vt 0.668836 0.831164
vt 0.919706 0.580294
vt 0.750000 0.635216
vt 0.831164 0.668836
vt 0.864783 0.750000
vt 0.831164 0.831164
vt 0.580294 0.919706
vt 0.510000 0.750000
vt 0.635216 0.750000
vt 0.668836 0.668836
vt 0.168983 0.271030
vt 0.125000 0.250000
vt 0.125000 0.271030
vt 0.125000 0.386339
vt 0.164826 0.386332
vt 0.164826 0.344280
vt 0.400196 0.250000
vt 0.448663 0.206017
vt 0.402412 0.206017
vt 0.331017 0.271030
vt 0.351780 0.250000
vt 0.404375 0.834908
vt 0.464018 0.750000
vt 0.464018 0.866632
vt 0.473536 0.043983
vt 0.412794 0.000000
vt 0.410578 0.043983
vt 0.513837 0.301705
vt 0.522281 0.300396
vt 0.529348 0.293281
vt 0.467928 0.387059
vt 0.493744 0.381137
vt 0.488319 0.371630
vt 0.349679 0.320711
vt 0.375000 0.386555
vt 0.375000 0.271030
vt 0.427465 0.383368
vt 0.453132 0.489685
vt 0.404375 0.415092
vt 0.375000 0.978970
vt 0.470821 1.000000
vt 0.459937 0.867673
vt 0.529345 0.308676
vt 0.520496 0.311351
vt 0.509997 0.327272
vt 0.503439 0.375244
vt 0.511124 0.376639
vt 0.513749 0.362999
vt 0.422579 0.328775
vt 0.428282 0.321009
vt 0.810821 0.689179
vt 0.750000 0.663987
vt 0.836013 0.750000
vt 0.990000 0.750000
vt 0.750000 0.836013
vt 0.810821 0.810821
vt 0.750000 0.990000
vt 0.689179 0.689179
vt 1.000000 0.000000
vt 0.875000 0.000000
vt 0.750000 0.000000
vt 0.625000 0.000000
vt 0.500000 0.000000
vt 0.375000 0.000000
vt 0.419706 0.919706
vt 0.490000 0.750000
vt 0.010000 0.750000
vt 0.250000 0.000000
vt 0.000000 0.000000
vt 0.547178 0.750000
vt 0.606583 0.606583
vt 0.893417 0.606583
vt 0.952822 0.750000
vt 0.893417 0.893417
vt 0.750000 0.952822
vt 0.606583 0.893417
vt 0.750000 0.547178
vt 0.080294 0.580294
vt 0.250000 0.510000
vt 0.250000 0.990000
vt 0.125000 0.000000
vt 1.000000 0.479510
vt 0.625000 0.461310
vt 0.000000 0.461310
vt 0.173416 0.250000
vt 0.168983 0.327535
vt 0.459679 0.250000
vt 0.427465 0.866632
vt 0.404375 0.750000
vt 0.470821 0.000000
vt 0.454572 0.333621
vt 0.440911 0.337917
vt 0.462582 0.336228
vt 0.457432 0.379855
vt 0.460918 0.326461
vt 0.476931 0.328579
vt 0.512153 0.309789
vt 0.519126 0.311236
vt 0.442008 0.317362
vt 0.461465 0.274700
vt 0.455811 0.319799
vt 0.475081 0.282661
vt 0.509315 0.305690
vt 0.516228 0.284645
vt 0.524913 0.301072
vt 0.513804 0.355787
vt 0.515181 0.355403
vt 0.506239 0.344223
vt 0.470231 0.368650
vt 0.497117 0.360658
vt 0.486209 0.394659
vt 0.509740 0.383918
vt 0.349678 0.384717
vt 0.331017 0.320670
vt 0.453131 0.383368
vt 0.404375 0.489684
vt 0.375000 0.863661
vt 0.412794 1.000000
vt 0.527167 0.378747
vt 0.537036 0.391548
vt 0.552859 0.382488
vt 0.575272 0.299129
vt 0.531569 0.358777
vt 0.541238 0.301107
vt 0.530475 0.300855
vt 0.533575 0.303803
vt 0.536324 0.368376
vt 0.519540 0.374126
vt 0.523872 0.369135
vt 0.521519 0.364532
vt 0.505180 0.365533
vt 0.500932 0.370663
vt 0.427819 0.335916
vt 0.419706 0.580294
vt 0.080294 0.919706
vt 0.280142 0.500000
vt 0.326718 0.500000
vt 0.280142 0.500000
vt 0.326718 0.500000
vt 0.461562 0.781672
vt 0.470382 0.781672
vt 0.475017 0.781672
vt 0.460582 0.655142
vt 0.550870 0.701718
vt 0.550870 0.548282
vt 0.517548 0.781672
vt 0.475983 0.781672
vt 0.477406 0.781672
vt 0.219858 0.500000
vt 0.173282 0.500000
vt 0.219858 0.500000
vt 0.625000 0.356025
vt 0.875000 0.431323
vt 0.625000 0.431323
vt 0.219858 0.500000
vt 0.553731 0.853174
vt 0.563552 0.845210
vt 0.625000 0.893975
vt 0.553731 0.412754
vt 0.563552 0.404790
vt 0.375000 0.302230
vt 0.500000 0.382938
vt 0.375000 0.382938
vt 0.375000 0.197770
vt 0.500000 0.117062
vt 0.500000 0.197770
vt 0.613827 0.197770
vt 0.613827 0.117062
vt 0.613827 0.302230
vt 0.500000 0.302230
vt 0.250000 0.302230
vt 0.250000 0.382938
vt 0.250000 0.117062
vt 0.250000 0.197770
vt 0.000000 0.382938
vt 0.125000 0.302230
vt 0.125000 0.382938
vt 0.000000 0.117062
vt 0.125000 0.197770
vt 0.000000 0.197770
vt 0.125000 0.117062
vt 0.549480 0.091892
vt 0.434296 0.040733
vt 0.549480 0.040733
vt 0.549480 0.158108
vt 0.434296 0.209267
vt 0.434296 0.158108
vt 0.934655 0.382938
vt 1.000000 0.302230
vt 1.000000 0.382938
vt 0.934655 0.117062
vt 1.000000 0.197770
vt 0.934655 0.197770
vt 0.589127 0.540733
vt 0.434296 0.591892
vt 0.434296 0.540733
vt 0.589127 0.709267
vt 0.434296 0.658108
vt 0.589127 0.658108
vt 0.549932 0.750000
vt 0.608531 0.608531
vt 0.750000 0.549932
vt 0.891469 0.608531
vt 0.950068 0.750000
vt 0.891469 0.891469
vt 0.750000 0.950068
vt 0.608531 0.891469
vt 1.000000 0.168754
vt 0.832865 0.156182
vt 0.667134 0.156182
vt 0.625000 0.161823
vt 0.500000 0.168755
vt 0.332865 0.156182
vt 0.167135 0.156182
vt 0.125000 0.161823
vt 0.000000 0.168754
vt 0.375000 0.071484
vt 0.582037 0.178516
vt 0.375000 0.178516
vt 0.196484 0.250000
vt 0.203040 0.316380
vt 0.250000 0.397951
vt 0.582037 0.071484
vt 0.056600 0.862502
vt 0.443400 0.862502
vt 0.443400 0.637498
vt 0.303516 0.250000
vt 0.296960 0.316380
vt 0.250000 0.397951
vt 0.280142 0.500000
vt 0.468867 0.781672
vt 0.461562 0.781672
vt 0.469294 0.781672
vt 0.522159 0.781672
vt 0.517548 0.781672
vt 0.514790 0.781672
vt 0.475983 0.781672
vt 0.471479 0.781672
vt 0.466508 0.781672
vt 0.397439 0.655142
vt 0.397439 0.701718
vt 0.397439 0.548282
vt 0.460583 0.594858
vt 0.397439 0.594858
vt 0.466508 0.781672
vt 0.470382 0.781672
vt 0.475017 0.781672
vt 0.468867 0.781672
vt 0.471479 0.781672
vt 0.875000 0.356025
vt 0.530020 0.833947
vt 0.517624 0.835672
vt 0.512170 0.818677
vt 0.481710 0.830504
vt 0.481710 0.827925
vt 0.625000 0.818677
vt 0.513286 0.893975
vt 0.513286 0.886368
vt 0.481710 0.886368
vt 0.508428 0.853468
vt 0.481710 0.853468
vt 0.553731 0.837246
vt 0.530020 0.856472
vt 0.508428 0.396532
vt 0.481710 0.396531
vt 0.481710 0.363631
vt 0.513286 0.363632
vt 0.513286 0.356025
vt 0.530020 0.393528
vt 0.553731 0.396826
vt 0.512170 0.431323
vt 0.481710 0.422075
vt 0.517624 0.414328
vt 0.530020 0.416053
vt 0.481710 0.419496
vt 0.375000 0.117062
vt 0.613827 0.382938
vt 0.000000 0.302230
vt 0.434296 0.091892
vt 0.549480 0.209267
vt 0.934655 0.302230
vt 1.000000 0.117062
vt 0.589127 0.591892
vt 0.434296 0.709267
vt 0.875000 0.161823
vt 0.832865 0.000000
vt 0.667135 0.000000
vt 0.375000 0.161823
vt 0.332865 0.000000
vt 0.167135 0.000000
vt 0.582037 0.071484
vt 0.296960 0.316380
vt 0.056600 0.637498
vt 0.203040 0.316380
vt 0.250000 0.661724
vt 0.187580 0.687580
vt 0.312421 0.687580
vt 0.312420 0.812420
vt 0.338276 0.750000
vt 0.250000 0.838276
vt 0.161724 0.750000
vt 0.187580 0.812420
vt 0.554417 0.750000
vt 0.625000 0.745024
vt 0.625000 0.785291
vt 0.155290 0.320583
vt 0.125000 0.320583
vt 0.155290 0.429417
vt 0.125000 0.429417
vt 0.554417 1.000000
vt 0.445583 1.000000
vt 0.551922 0.719710
vt 0.554417 0.719710
vt 0.875000 0.481992
vt 1.000000 0.481992
vt 0.750000 0.481992
vt 0.625000 0.481992
vt 0.500000 0.481992
vt 0.375000 0.481992
vt 0.250000 0.481992
vt 0.000000 0.481992
vt 0.125000 0.481992
vt 0.962704 0.731392
vt 0.962704 0.768608
vt 0.157014 0.499949
vt 0.157014 0.333371
vt 0.422310 0.750000
vt 0.422310 0.500000
vt 0.625000 0.250000
vt 0.422310 0.000000
vt 0.422310 0.250000
vt 0.608554 0.500000
vt 0.559898 0.500000
vt 0.559838 0.250000
vt 0.619070 0.250000
vt 0.105647 0.600079
vt 0.027938 0.706694
vt 0.562290 0.623761
vt 0.422310 1.000000
vt 0.281891 0.000000
vt 0.342986 0.333371
vt 0.375000 0.437939
vt 0.216836 0.437939
vt 0.221002 0.463540
vt 0.625000 0.458626
vt 0.584457 0.750000
vt 0.625000 0.781030
vt 0.402029 0.250000
vt 0.202637 0.250000
vt 0.221000 0.286471
vt 0.584457 0.250000
vt 0.625000 0.291374
vt 0.375000 0.312061
vt 0.484471 0.757562
vt 0.484471 0.992405
vt 0.478219 0.000000
vt 0.875000 0.437939
vt 0.402029 0.500000
vt 0.413792 0.717604
vt 0.467066 0.750000
vt 0.584457 0.500000
vt 0.459573 0.749561
vt 0.875000 0.320583
vt 0.844710 0.432268
vt 0.844710 0.317732
vt 0.537296 0.768608
vt 0.537296 0.731392
vt 0.554417 0.000000
vt 0.554417 0.030290
vt 0.445228 0.030290
vt 0.625000 0.035992
vt 0.160991 0.500000
vt 0.160991 0.250000
vt 0.375000 0.929417
vt 0.375000 0.820583
vt 0.445583 0.750000
vt 0.625000 0.929417
vt 0.442732 0.719710
vt 0.927381 0.707255
vt 0.580294 0.707255
vt 0.927381 0.792745
vt 0.919706 0.792745
vt 0.218102 0.000000
vt 0.625000 0.750000
vt 0.875000 0.250000
vt 0.549768 0.500000
vt 0.437328 0.500000
vt 0.437329 0.250000
vt 0.549765 0.250000
vt 0.367812 0.502144
vt 0.385644 0.467800
vt 0.027934 0.793297
vt 0.105647 0.897738
vt 0.251668 0.958259
vt 0.367817 0.573385
vt 0.100191 0.728604
vt 0.385657 0.582857
vt 0.251668 0.540522
vt 0.625000 1.000000
vt 0.342979 0.500000
vt 0.160899 0.500000
vt 0.216836 0.312061
vt 0.584457 0.000000
vt 0.478219 1.000000
vt 0.584457 1.000000
vt 0.625000 0.937939
vt 0.411756 0.070062
vt 0.875000 0.312061
vt 0.398637 0.602013
vt 0.398637 0.897040
vt 0.875000 0.429417
vt 0.572621 0.792745
vt 0.572621 0.707255
vt 0.442732 0.030290
vt 0.445583 0.000000
vt 0.375000 0.750000
vt 0.625000 0.310374
vt 0.375000 0.286985
vt 0.375000 0.250000
vt 0.375000 0.284875
vt 0.375000 0.276127
vt 0.375000 0.302011
vt 0.125000 0.276128
vt 0.125000 0.302011
vt 0.125000 0.319267
vt 0.125000 0.345972
vt 0.375000 0.345972
vt 0.125000 0.399832
vt 0.375000 0.399832
vt 0.375000 0.963015
vt 0.375000 0.965126
vt 0.625000 0.939626
vt 0.375000 0.319267
vt 0.375000 0.318546
vt 0.375000 0.833021
vt 0.375000 0.820242
vt 0.375000 0.860060
vt 0.375000 0.869714
vt 0.125000 0.413226
vt 0.375000 0.413226
vt 0.375000 0.380286
vt 0.875000 0.310374
vt 0.375000 0.389940
vt 0.375000 1.000000
vt 0.375000 0.973872
vt 0.375000 0.836774
vt 0.375000 0.931454
vt 0.375000 0.930733
vt 0.125000 0.180878
vt 0.250000 0.319122
vt 0.125000 0.319122
vt 0.750000 0.180878
vt 0.875000 0.319122
vt 0.750000 0.319122
vt 0.250000 0.180878
vt 0.375000 0.319122
vt 0.625000 0.180878
vt 0.625000 0.319122
vt 0.375000 0.399546
vt 0.375000 0.420353
vt 0.375000 0.850454
vt 0.375000 0.865951
vt 0.500000 0.319122
vt 0.000000 0.180878
vt 0.000000 0.319122
vt 0.875000 0.180878
vt 1.000000 0.319122
vt 0.375000 0.180878
vt 0.375000 0.432177
vt 0.375000 0.429758
vt 0.375000 0.384870
vt 0.375000 0.416979
vt 0.375000 0.399480
vt 0.375000 0.947989
vt 0.375000 0.865130
vt 0.375000 0.850520
vt 0.375000 0.817823
vt 0.375000 0.904028
vt 0.375000 0.850168
vt 0.375000 0.384049
vt 0.375000 0.829647
vt 0.500000 0.180878
vt 1.000000 0.180878
vt 1.000000 0.250000
vt 0.750000 0.250000
vt 0.500000 0.250000
vt 0.250000 0.250000
vt 0.000000 0.250000
s 0
usemtl 9K32M_Strela-2M_1_Material_5
f 52/1/1 53/2/1 54/3/1
f 55/4/2 53/2/2 52/1/2
f 55/4/3 56/5/3 57/6/3
f 58/7/4 59/8/4 56/5/4
f 60/9/5 61/10/5 62/11/5
f 60/9/6 63/12/6 61/10/6
f 64/13/7 65/14/7 63/12/7
f 66/15/8 67/16/8 65/14/8
f 68/17/9 66/18/9 58/19/9
f 69/1/1 70/20/1 71/21/1
f 72/4/2 73/22/2 69/1/2
f 72/4/3 74/23/3 75/24/3
f 76/25/10 74/23/10 77/7/10
f 78/9/5 79/26/5 76/25/5
f 80/13/6 81/27/6 78/9/6
f 82/15/7 83/28/7 80/13/7
f 82/15/8 70/29/8 84/30/8
f 85/31/2 86/32/2 87/32/2
f 88/1/1 89/33/1 90/21/1
f 91/4/2 92/34/2 88/1/2
f 93/7/3 94/35/3 91/4/3
f 95/25/11 96/36/11 97/37/11
f 98/9/5 96/36/5 95/25/5
f 99/13/6 100/38/6 98/9/6
f 99/13/7 101/39/7 102/40/7
f 90/41/8 101/39/8 103/15/8
f 104/42/1 105/43/1 106/42/1
f 88/44/9 107/45/9 108/46/9
f 109/47/9 88/44/9 108/46/9
f 93/19/9 109/47/9 110/48/9
f 106/42/9 93/19/9 110/48/9
f 98/49/9 106/42/9 105/43/9
f 99/50/9 105/43/9 111/51/9
f 112/52/9 99/50/9 111/51/9
f 107/45/9 103/18/9 112/52/9
f 113/47/7 110/48/7 109/47/7
f 114/45/5 108/46/5 107/45/5
f 112/52/10 114/45/10 107/45/10
f 115/43/2 111/51/2 105/43/2
f 110/48/8 104/42/8 106/42/8
f 116/46/6 109/47/6 108/46/6
f 117/51/3 112/52/3 111/51/3
f 118/53/12 119/54/12 120/55/12
f 47/56/13 30/57/13 21/58/13
f 121/59/14 25/60/14 122/61/14
f 123/62/12 121/59/12 122/63/12
f 118/64/9 51/65/9 26/66/9
f 26/67/14 119/68/14 124/69/14
f 56/70/9 59/71/9 31/72/9
f 45/73/9 92/74/9 94/75/9
f 48/76/13 37/77/13 125/78/13
f 122/79/15 29/80/15 123/81/15
f 120/82/15 27/83/15 23/84/15
f 65/85/9 67/86/9 44/87/9
f 116/88/9 114/89/9 104/90/9
f 75/91/9 74/92/9 125/78/9
f 126/93/9 71/17/9 127/94/9
f 128/95/9 69/44/9 126/93/9
f 128/95/9 77/19/9 72/96/9
f 129/97/9 77/19/9 130/98/9
f 85/31/9 76/99/9 129/97/9
f 85/31/9 80/50/9 78/49/9
f 131/100/9 80/50/9 87/32/9
f 131/100/9 71/17/9 82/18/9
f 132/100/9 133/31/9 134/98/9
f 130/98/8 135/97/8 129/97/8
f 128/95/6 136/93/6 137/95/6
f 131/100/3 86/32/3 132/100/3
f 129/97/1 133/31/1 85/31/1
f 128/95/7 134/98/7 130/98/7
f 126/93/5 138/94/5 136/93/5
f 127/94/10 132/100/10 138/94/10
f 139/101/5 140/1/5 141/21/5
f 142/102/6 143/4/6 140/1/6
f 144/103/7 145/7/7 143/4/7
f 146/104/8 147/25/8 145/7/8
f 148/105/1 149/9/1 147/25/1
f 150/106/2 151/13/2 149/9/2
f 146/107/9 144/108/9 152/109/9
f 152/110/3 153/15/3 151/13/3
f 153/15/10 139/111/10 141/41/10
f 154/112/3 155/113/3 156/112/3
f 157/114/15 141/17/15 140/44/15
f 158/115/15 140/44/15 143/96/15
f 158/115/15 145/19/15 159/116/15
f 159/116/15 147/99/15 160/117/15
f 161/118/15 147/99/15 149/49/15
f 154/112/15 149/49/15 151/50/15
f 154/112/15 153/18/15 162/113/15
f 162/113/15 141/17/15 163/119/15
f 160/117/1 164/118/1 165/117/1
f 158/115/7 166/116/7 167/115/7
f 162/113/10 168/119/10 155/113/10
f 161/118/2 156/112/2 164/118/2
f 159/116/8 165/117/8 166/116/8
f 157/114/6 167/115/6 169/114/6
f 170/1/5 171/101/5 172/21/5
f 173/4/6 174/102/6 170/1/6
f 175/7/7 176/103/7 173/4/7
f 177/25/8 178/104/8 175/7/8
f 179/9/1 180/105/1 177/25/1
f 181/13/2 182/106/2 179/9/2
f 183/120/15 171/121/15 180/122/15
f 184/15/3 185/110/3 181/13/3
f 184/15/10 171/111/10 183/123/10
f 169/114/9 172/17/9 168/119/9
f 167/115/9 170/44/9 169/114/9
f 175/19/9 167/115/9 166/116/9
f 177/99/9 166/116/9 165/117/9
f 164/118/9 177/99/9 165/117/9
f 156/112/9 179/49/9 164/118/9
f 184/18/9 156/112/9 155/113/9
f 172/17/9 155/113/9 168/119/9
f 163/119/5 169/114/5 168/119/5
f 186/21/5 187/102/5 188/1/5
f 187/102/6 189/4/6 188/1/6
f 190/103/7 191/7/7 189/4/7
f 192/104/8 193/25/8 191/7/8
f 194/105/1 195/9/1 193/25/1
f 196/106/2 197/13/2 195/9/2
f 198/121/9 199/109/9 194/122/9
f 199/110/3 200/15/3 197/13/3
f 200/15/10 198/111/10 186/41/10
f 201/49/2 202/50/2 203/49/2
f 204/44/9 186/17/9 188/44/9
f 205/96/9 188/44/9 189/96/9
f 206/19/9 189/96/9 191/19/9
f 207/99/9 191/19/9 193/99/9
f 207/99/9 195/49/9 201/49/9
f 201/49/9 197/50/9 208/50/9
f 208/50/9 200/18/9 209/18/9
f 210/17/9 200/18/9 186/17/9
f 211/18/15 212/44/15 213/19/15
f 207/99/8 213/19/8 206/19/8
f 204/44/6 214/96/6 212/44/6
f 208/50/3 211/18/3 202/50/3
f 207/99/1 203/49/1 215/99/1
f 206/19/7 214/96/7 205/96/7
s 1
f 210/17/5 212/44/5 216/17/5
s 0
f 210/17/10 211/18/10 209/18/10
f 217/21/5 218/102/5 219/1/5
f 218/102/6 220/4/6 219/1/6
f 221/103/7 222/7/7 220/4/7
f 223/104/8 224/25/8 222/7/8
f 225/105/1 226/9/1 224/25/1
f 227/106/2 228/13/2 226/9/2
f 229/121/9 230/109/9 225/122/9
s 1
f 230/110/3 231/15/3 228/13/3
s 0
f 231/15/10 229/111/10 217/41/10
f 231/15/16 232/13/16 228/13/16
f 233/49/15 232/50/15 234/18/15
f 219/1/17 235/4/17 236/1/17
f 224/25/18 233/9/18 237/25/18
f 217/41/19 234/15/19 231/15/19
f 219/1/20 238/21/20 217/21/20
f 222/7/21 235/4/21 220/4/21
f 226/9/22 232/13/22 233/9/22
f 222/7/23 237/25/23 239/7/23
f 240/101/5 241/1/5 242/21/5
f 243/102/6 244/4/6 241/1/6
f 245/103/7 246/7/7 244/4/7
f 247/104/8 248/25/8 246/7/8
f 249/105/1 250/9/1 248/25/1
f 251/106/2 252/13/2 250/9/2
f 253/109/9 249/122/9 245/108/9
f 253/110/3 254/15/3 252/13/3
f 255/123/10 242/41/10 254/15/10
f 252/50/15 254/18/15 246/19/15
f 256/101/5 257/1/5 258/21/5
f 259/102/6 260/4/6 257/1/6
f 260/4/7 261/104/7 262/7/7
f 262/7/8 263/105/8 264/25/8
f 263/105/1 265/9/1 264/25/1
f 266/106/2 267/13/2 265/9/2
f 256/121/9 268/109/9 263/122/9
s 1
f 268/110/3 269/15/3 267/13/3
s 0
f 270/123/10 258/41/10 269/15/10
f 267/50/15 269/18/15 262/19/15
f 54/3/1 67/124/1 68/21/1
f 68/21/1 52/1/1 54/3/1
f 55/4/2 57/6/2 53/2/2
f 55/4/3 58/7/3 56/5/3
f 58/7/10 271/25/10 59/8/10
f 62/11/24 59/8/24 271/25/24
f 271/25/24 60/9/24 62/11/24
f 60/9/6 64/13/6 63/12/6
f 64/13/7 66/15/7 65/14/7
f 66/15/8 68/41/8 67/16/8
f 66/18/9 64/50/9 58/19/9
f 64/50/9 60/49/9 58/19/9
f 60/49/9 271/99/9 58/19/9
f 58/19/9 55/96/9 52/44/9
f 52/44/9 68/17/9 58/19/9
f 69/1/1 73/22/1 70/20/1
f 72/4/2 75/24/2 73/22/2
f 72/4/3 77/7/3 74/23/3
f 76/25/10 79/26/10 74/23/10
f 78/9/5 81/27/5 79/26/5
f 80/13/6 83/28/6 81/27/6
f 82/15/7 84/30/7 83/28/7
f 82/15/8 71/41/8 70/29/8
f 85/31/2 133/31/2 86/32/2
f 88/1/1 92/34/1 89/33/1
f 91/4/2 94/35/2 92/34/2
f 93/7/3 272/125/3 94/35/3
f 97/37/10 272/125/10 93/7/10
f 93/7/10 95/25/10 97/37/10
f 98/9/5 100/38/5 96/36/5
f 99/13/6 102/40/6 100/38/6
f 99/13/7 103/15/7 101/39/7
f 90/41/8 89/126/8 101/39/8
f 104/42/1 115/43/1 105/43/1
f 88/44/9 90/17/9 107/45/9
f 109/47/9 91/96/9 88/44/9
f 93/19/9 91/96/9 109/47/9
f 106/42/9 95/99/9 93/19/9
f 98/49/9 95/99/9 106/42/9
f 99/50/9 98/49/9 105/43/9
f 112/52/9 103/18/9 99/50/9
f 107/45/9 90/17/9 103/18/9
f 113/47/7 273/48/7 110/48/7
f 114/45/5 116/46/5 108/46/5
f 112/52/10 274/52/10 114/45/10
f 115/43/2 117/51/2 111/51/2
f 110/48/8 273/48/8 104/42/8
f 116/46/6 113/47/6 109/47/6
f 117/51/3 274/52/3 112/52/3
f 118/53/12 124/127/12 119/54/12
f 21/58/13 28/128/13 120/55/13
f 28/128/13 118/53/13 120/55/13
f 120/55/13 47/56/13 21/58/13
f 121/59/14 24/129/14 25/60/14
f 123/62/12 125/78/12 121/59/12
f 26/66/9 124/130/9 118/64/9
f 118/64/9 28/131/9 51/65/9
f 26/67/14 27/132/14 119/68/14
f 84/133/9 70/134/9 39/135/9
f 70/134/9 41/136/9 39/135/9
f 83/137/9 84/133/9 39/135/9
f 38/138/9 44/87/9 53/139/9
f 44/87/9 54/140/9 53/139/9
f 83/137/9 39/135/9 38/138/9
f 24/129/9 79/141/9 34/142/9
f 79/141/9 81/143/9 35/144/9
f 34/142/9 79/141/9 35/144/9
f 81/143/9 83/137/9 38/138/9
f 38/138/9 53/139/9 81/143/9
f 53/139/9 57/145/9 81/143/9
f 31/72/9 36/146/9 56/70/9
f 36/146/9 35/144/9 56/70/9
f 81/143/9 57/145/9 35/144/9
f 57/145/9 56/70/9 35/144/9
f 59/71/9 62/147/9 31/72/9
f 97/148/9 96/149/9 40/150/9
f 96/149/9 44/87/9 40/150/9
f 40/150/9 42/151/9 272/152/9
f 42/151/9 45/73/9 94/75/9
f 272/152/9 42/151/9 94/75/9
f 272/152/9 97/148/9 40/150/9
f 45/73/9 22/153/9 92/74/9
f 22/153/9 89/154/9 92/74/9
f 48/76/13 50/155/13 37/77/13
f 125/78/13 123/62/13 48/76/13
f 123/62/13 49/156/13 48/76/13
f 25/157/15 29/80/15 122/79/15
f 29/80/15 49/158/15 123/81/15
f 23/84/15 47/159/15 120/82/15
f 120/82/15 119/160/15 27/83/15
f 101/161/9 89/154/9 46/162/9
f 89/154/9 22/153/9 46/162/9
f 46/162/9 43/163/9 101/161/9
f 43/163/9 33/164/9 100/165/9
f 33/164/9 32/166/9 65/85/9
f 31/72/9 62/147/9 61/167/9
f 31/72/9 61/167/9 32/166/9
f 61/167/9 63/168/9 32/166/9
f 33/164/9 65/85/9 44/87/9
f 102/169/9 101/161/9 43/163/9
f 32/166/9 63/168/9 65/85/9
f 100/165/9 33/164/9 44/87/9
f 100/165/9 102/169/9 43/163/9
f 44/87/9 96/149/9 100/165/9
f 67/86/9 54/140/9 44/87/9
f 114/89/9 274/170/9 104/90/9
f 274/170/9 117/171/9 104/90/9
f 117/171/9 115/172/9 104/90/9
f 104/90/9 273/173/9 113/174/9
f 113/174/9 116/88/9 104/90/9
f 79/141/9 24/129/9 121/59/9
f 121/59/9 125/78/9 79/141/9
f 125/78/9 37/77/9 75/91/9
f 37/77/9 41/136/9 70/134/9
f 37/77/9 70/134/9 73/175/9
f 74/92/9 79/141/9 125/78/9
f 37/77/9 73/175/9 75/91/9
f 126/93/9 69/44/9 71/17/9
f 128/95/9 72/96/9 69/44/9
f 128/95/9 130/98/9 77/19/9
f 129/97/9 76/99/9 77/19/9
f 85/31/9 78/49/9 76/99/9
f 85/31/9 87/32/9 80/50/9
f 131/100/9 82/18/9 80/50/9
f 131/100/9 127/94/9 71/17/9
f 132/100/9 86/32/9 133/31/9
f 133/31/9 135/97/9 134/98/9
f 134/98/9 137/95/9 136/93/9
f 136/93/9 138/94/9 134/98/9
f 138/94/9 132/100/9 134/98/9
f 130/98/8 134/98/8 135/97/8
f 128/95/6 126/93/6 136/93/6
f 131/100/3 87/32/3 86/32/3
f 129/97/1 135/97/1 133/31/1
f 128/95/7 137/95/7 134/98/7
f 126/93/5 127/94/5 138/94/5
f 127/94/10 131/100/10 132/100/10
f 139/101/5 142/102/5 140/1/5
f 142/102/6 144/103/6 143/4/6
f 144/103/7 146/104/7 145/7/7
f 146/104/8 148/105/8 147/25/8
f 148/105/1 150/106/1 149/9/1
f 150/106/2 152/110/2 151/13/2
f 144/108/9 142/176/9 139/121/9
f 139/121/9 275/120/9 144/108/9
f 275/120/9 152/109/9 144/108/9
f 152/109/9 150/177/9 148/122/9
f 148/122/9 146/107/9 152/109/9
f 152/110/3 275/123/3 153/15/3
f 153/15/10 275/123/10 139/111/10
f 154/112/3 162/113/3 155/113/3
f 157/114/15 163/119/15 141/17/15
f 158/115/15 157/114/15 140/44/15
f 158/115/15 143/96/15 145/19/15
f 159/116/15 145/19/15 147/99/15
f 161/118/15 160/117/15 147/99/15
f 154/112/15 161/118/15 149/49/15
f 154/112/15 151/50/15 153/18/15
f 162/113/15 153/18/15 141/17/15
f 160/117/1 161/118/1 164/118/1
f 158/115/7 159/116/7 166/116/7
f 162/113/10 163/119/10 168/119/10
f 161/118/2 154/112/2 156/112/2
f 159/116/8 160/117/8 165/117/8
f 157/114/6 158/115/6 167/115/6
f 170/1/5 174/102/5 171/101/5
f 173/4/6 176/103/6 174/102/6
f 175/7/7 178/104/7 176/103/7
f 177/25/8 180/105/8 178/104/8
f 179/9/1 182/106/1 180/105/1
f 181/13/2 185/110/2 182/106/2
f 171/121/15 174/176/15 176/108/15
f 176/108/15 178/107/15 171/121/15
f 178/107/15 180/122/15 171/121/15
f 180/122/15 182/177/15 185/109/15
f 185/109/15 183/120/15 180/122/15
f 184/15/3 183/123/3 185/110/3
f 184/15/10 172/41/10 171/111/10
f 169/114/9 170/44/9 172/17/9
f 167/115/9 173/96/9 170/44/9
f 175/19/9 173/96/9 167/115/9
f 177/99/9 175/19/9 166/116/9
f 164/118/9 179/49/9 177/99/9
f 156/112/9 181/50/9 179/49/9
f 184/18/9 181/50/9 156/112/9
f 172/17/9 184/18/9 155/113/9
f 163/119/5 157/114/5 169/114/5
f 186/21/5 198/101/5 187/102/5
f 187/102/6 190/103/6 189/4/6
f 190/103/7 192/104/7 191/7/7
f 192/104/8 194/105/8 193/25/8
f 194/105/1 196/106/1 195/9/1
f 196/106/2 199/110/2 197/13/2
f 190/108/9 187/176/9 198/121/9
f 198/121/9 276/120/9 199/109/9
f 199/109/9 196/177/9 194/122/9
f 194/122/9 192/107/9 190/108/9
f 190/108/9 198/121/9 194/122/9
f 199/110/3 276/123/3 200/15/3
f 200/15/10 276/123/10 198/111/10
f 201/49/2 208/50/2 202/50/2
f 204/44/9 210/17/9 186/17/9
f 205/96/9 204/44/9 188/44/9
f 206/19/9 205/96/9 189/96/9
f 207/99/9 206/19/9 191/19/9
f 207/99/9 193/99/9 195/49/9
f 201/49/9 195/49/9 197/50/9
f 208/50/9 197/50/9 200/18/9
f 210/17/9 209/18/9 200/18/9
f 211/18/15 216/17/15 212/44/15
f 212/44/15 214/96/15 213/19/15
f 213/19/15 215/99/15 211/18/15
f 215/99/15 203/49/15 211/18/15
f 203/49/15 202/50/15 211/18/15
f 207/99/8 215/99/8 213/19/8
f 204/44/6 205/96/6 214/96/6
f 208/50/3 209/18/3 211/18/3
f 207/99/1 201/49/1 203/49/1
f 206/19/7 213/19/7 214/96/7
f 210/17/5 204/44/5 212/44/5
f 210/17/10 216/17/10 211/18/10
f 217/21/5 229/101/5 218/102/5
f 218/102/6 221/103/6 220/4/6
f 221/103/7 223/104/7 222/7/7
f 223/104/8 225/105/8 224/25/8
f 225/105/1 227/106/1 226/9/1
f 227/106/2 230/110/2 228/13/2
f 221/108/9 218/176/9 229/121/9
f 229/121/9 277/120/9 230/109/9
f 230/109/9 227/177/9 225/122/9
f 225/122/9 223/107/9 221/108/9
f 221/108/9 229/121/9 225/122/9
f 230/110/3 277/123/3 231/15/3
f 231/15/10 277/123/10 229/111/10
f 231/15/16 234/15/16 232/13/16
f 234/18/15 238/17/15 236/44/15
f 236/44/15 235/96/15 234/18/15
f 235/96/15 239/19/15 234/18/15
f 239/19/15 237/99/15 234/18/15
f 237/99/15 233/49/15 234/18/15
f 219/1/17 220/4/17 235/4/17
f 224/25/18 226/9/18 233/9/18
f 217/41/19 238/41/19 234/15/19
f 219/1/20 236/1/20 238/21/20
f 222/7/21 239/7/21 235/4/21
f 226/9/22 228/13/22 232/13/22
f 222/7/23 224/25/23 237/25/23
f 240/101/5 243/102/5 241/1/5
f 243/102/6 245/103/6 244/4/6
f 245/103/7 247/104/7 246/7/7
f 247/104/8 249/105/8 248/25/8
f 249/105/1 251/106/1 250/9/1
f 251/106/2 253/110/2 252/13/2
f 245/108/9 243/176/9 240/121/9
f 240/121/9 255/120/9 245/108/9
f 255/120/9 253/109/9 245/108/9
f 253/109/9 251/177/9 249/122/9
f 249/122/9 247/107/9 245/108/9
f 253/110/3 255/123/3 254/15/3
f 255/123/10 240/111/10 242/41/10
f 254/18/15 242/17/15 241/44/15
f 241/44/15 244/96/15 254/18/15
f 244/96/15 246/19/15 254/18/15
f 246/19/15 248/99/15 250/49/15
f 250/49/15 252/50/15 246/19/15
f 256/101/5 259/102/5 257/1/5
f 259/102/6 278/103/6 260/4/6
s 1
f 260/4/7 278/103/7 261/104/7
s 0
f 262/7/8 261/104/8 263/105/8
f 263/105/1 266/106/1 265/9/1
f 266/106/2 268/110/2 267/13/2
f 278/108/9 259/176/9 256/121/9
f 256/121/9 270/120/9 268/109/9
f 268/109/9 266/177/9 263/122/9
f 263/122/9 261/107/9 278/108/9
f 278/108/9 256/121/9 263/122/9
s 1
f 268/110/3 270/123/3 269/15/3
s 0
f 270/123/10 256/111/10 258/41/10
f 269/18/15 258/17/15 262/19/15
f 258/17/15 257/44/15 262/19/15
f 257/44/15 260/96/15 262/19/15
f 262/19/15 264/99/15 265/49/15
f 265/49/15 267/50/15 262/19/15
f 5/178/13 279/179/13 20/179/13
f 280/178/14 281/179/14 279/179/14
f 282/180/25 283/179/25 284/181/25
f 285/178/13 286/179/13 281/179/13
f 279/182/9 287/183/9 288/184/9
f 289/185/26 1/186/26 17/187/26
f 3/188/15 290/189/15 291/190/15
f 292/191/13 293/192/13 294/191/13
f 294/191/25 295/192/25 296/193/25
f 8/194/13 289/195/13 297/196/13
f 7/197/13 298/192/13 299/197/13
f 300/198/9 301/199/9 6/200/9
f 302/197/14 298/192/14 303/192/14
f 297/196/15 304/201/15 305/202/15
f 300/203/5 306/204/5 307/205/5
f 308/206/5 287/207/5 309/208/5
f 310/209/10 287/207/10 311/210/10
f 312/211/10 306/204/10 313/212/10
f 301/213/6 307/205/6 291/214/6
f 314/215/6 308/206/6 305/216/6
f 315/217/8 316/218/8 290/219/8
f 317/220/8 304/221/8 318/222/8
f 316/218/7 291/214/7 290/219/7
f 319/223/7 305/216/7 304/221/7
f 312/224/26 320/225/26 321/226/26
f 310/227/26 286/228/26 322/229/26
f 320/192/13 302/197/13 303/192/13
s 1
f 323/230/1 324/231/1 315/232/1
s 0
f 325/233/1 318/234/1 326/235/1
f 327/180/13 284/181/13 328/179/13
f 325/236/27 327/237/27 328/238/27
f 323/239/27 292/240/27 329/241/27
f 428/1/28 16/101/28 427/21/28
f 330/4/29 14/102/29 428/1/29
f 331/7/30 13/103/30 330/4/30
f 425/25/31 9/104/32 331/7/31
f 426/9/33 10/105/33 425/25/34
f 332/13/35 15/106/35 426/9/35
f 429/15/36 11/110/36 332/13/36
f 427/41/37 12/123/38 429/15/37
f 331/7/39 333/25/39 425/25/39
f 334/242/40 434/243/40 433/242/40
f 332/13/41 335/15/41 429/15/41
f 336/1/42 330/4/43 428/1/43
f 333/25/44 426/9/44 425/25/44
f 429/15/45 337/41/45 427/41/45
f 337/21/46 428/1/46 427/21/46
f 330/4/47 338/7/47 331/7/47
f 339/9/48 332/13/48 426/9/48
f 336/44/14 340/244/14 435/245/14
f 431/246/14 336/44/14 435/245/14
f 338/19/49 431/246/49 430/247/49
f 432/248/14 338/19/14 430/247/14
f 339/49/14 432/248/14 436/249/14
f 433/242/14 339/49/14 436/249/14
f 335/18/14 433/242/14 434/243/14
f 340/244/14 335/18/14 434/243/14
f 341/249/14 342/247/14 343/245/14
f 344/248/50 436/249/34 432/248/50
f 431/246/30 342/247/30 430/247/30
f 345/244/51 435/245/28 340/244/51
f 346/243/52 340/244/52 434/243/52
f 341/249/53 433/242/54 436/249/35
f 430/247/55 344/248/55 432/248/55
f 343/245/56 431/246/56 435/245/56
f 347/250/57 348/1/57 349/21/57
f 350/251/58 351/103/58 352/4/58
f 353/252/59 354/253/59 352/4/59
f 355/7/60 356/254/60 357/25/60
f 356/254/61 358/9/61 357/25/61
f 359/255/62 360/110/62 361/13/62
f 362/256/63 363/257/63 361/13/63
f 364/15/64 347/258/64 349/41/64
f 357/25/65 365/7/65 355/7/65
f 366/15/63 367/13/63 368/13/63
f 364/15/66 368/13/66 361/13/66
f 348/1/67 369/4/67 370/1/67
f 357/25/68 371/9/68 372/25/68
f 349/41/69 366/15/69 364/15/69
f 349/21/70 370/1/70 373/21/70
f 355/7/71 369/4/71 352/4/71
f 358/9/72 368/13/72 371/9/72
f 367/50/13 374/18/13 375/19/13
f 371/9/61 376/25/61 372/25/61
f 365/7/59 377/4/59 369/4/59
f 370/1/57 378/21/57 373/21/57
f 373/41/64 374/15/64 366/15/64
f 368/13/62 379/9/62 371/9/62
f 372/25/60 375/7/60 365/7/60
f 369/4/58 380/1/58 370/1/58
f 362/259/26 381/260/26 350/261/26
f 359/262/73 382/263/73 356/264/73
f 353/261/14 383/265/14 359/259/14
f 383/266/74 384/267/74 381/268/74
f 350/269/75 385/270/75 347/271/75
f 5/178/13 280/178/13 279/179/13
f 280/178/14 285/178/14 281/179/14
f 282/180/25 386/272/25 283/179/25
f 285/178/13 322/178/13 286/179/13
f 325/273/9 328/274/9 284/182/9
f 284/182/9 283/275/9 325/273/9
f 283/275/9 17/276/9 18/277/9
f 18/277/9 2/278/9 314/190/9
f 2/278/9 20/182/9 279/182/9
f 283/275/9 18/277/9 319/279/9
f 317/280/9 283/275/9 319/279/9
f 317/280/9 325/273/9 283/275/9
f 2/278/9 279/182/9 288/184/9
f 279/182/9 281/182/9 311/281/9
f 281/182/9 286/274/9 311/281/9
f 311/281/9 287/183/9 279/182/9
f 314/190/9 319/279/9 18/277/9
f 2/278/9 288/184/9 314/190/9
f 289/185/26 296/282/26 295/283/26
f 17/187/26 283/284/26 297/285/26
f 283/284/26 386/286/26 297/285/26
f 289/185/26 295/283/26 1/186/26
f 17/187/26 297/285/26 289/185/26
f 321/287/15 320/182/15 303/182/15
f 298/182/15 19/182/15 4/278/15
f 321/287/15 303/182/15 298/182/15
f 306/288/15 321/287/15 298/182/15
f 298/182/15 4/278/15 307/289/15
f 4/278/15 3/188/15 291/190/15
f 298/182/15 307/289/15 306/288/15
f 3/188/15 1/276/15 295/275/15
f 295/275/15 293/182/15 323/290/15
f 293/182/15 387/182/15 323/290/15
f 323/290/15 315/291/15 295/275/15
f 307/289/15 4/278/15 291/190/15
f 3/188/15 295/275/15 290/189/15
f 295/275/15 315/291/15 290/189/15
f 292/191/13 387/192/13 293/192/13
f 294/191/25 293/192/25 295/192/25
f 8/194/13 6/292/13 289/195/13
f 7/197/13 19/192/13 298/192/13
f 324/293/9 329/294/9 296/295/9
f 329/294/9 292/296/9 294/297/9
f 296/295/9 329/294/9 294/297/9
f 289/298/9 6/200/9 301/199/9
f 6/200/9 7/299/9 299/300/9
f 299/300/9 302/301/9 312/302/9
f 302/301/9 388/303/9 312/302/9
f 6/200/9 299/300/9 300/198/9
f 296/295/9 289/298/9 316/304/9
f 324/293/9 296/295/9 316/304/9
f 299/300/9 312/302/9 313/305/9
f 301/199/9 316/304/9 289/298/9
f 299/300/9 313/305/9 300/198/9
f 302/197/14 299/197/14 298/192/14
f 310/306/15 322/307/15 285/308/15
f 280/309/15 5/310/15 8/194/15
f 310/306/15 285/308/15 280/309/15
f 309/311/15 310/306/15 280/309/15
f 280/309/15 8/194/15 308/312/15
f 8/194/15 297/196/15 305/202/15
f 297/196/15 386/313/15 304/201/15
f 386/313/15 282/314/15 326/315/15
f 318/316/15 386/313/15 326/315/15
f 282/314/15 327/317/15 326/315/15
f 308/312/15 309/311/15 280/309/15
f 305/202/15 308/312/15 8/194/15
f 386/313/15 318/316/15 304/201/15
f 300/203/5 313/212/5 306/204/5
s 1
f 308/206/5 288/318/5 287/207/5
s 0
f 310/209/10 309/208/10 287/207/10
f 312/211/10 321/319/10 306/204/10
f 301/213/6 300/203/6 307/205/6
f 314/215/6 288/318/6 308/206/6
f 315/217/8 324/320/8 316/218/8
f 317/220/8 319/223/8 304/221/8
f 316/218/7 301/213/7 291/214/7
f 319/223/7 314/215/7 305/216/7
f 312/224/26 388/321/26 320/225/26
f 310/227/26 311/322/26 286/228/26
f 320/192/13 388/197/13 302/197/13
f 323/230/1 329/323/1 324/231/1
f 325/233/1 317/324/1 318/234/1
f 327/180/13 282/180/13 284/181/13
f 325/236/27 326/325/27 327/237/27
f 323/239/27 387/326/27 292/240/27
f 428/1/28 14/102/28 16/101/76
f 330/4/77 13/103/29 14/102/29
f 331/7/78 9/104/78 13/103/78
f 425/25/32 10/105/32 9/104/32
f 426/9/34 15/106/50 10/105/34
f 332/13/53 11/110/53 15/106/53
f 429/15/36 12/123/36 11/110/36
f 427/41/38 16/111/38 12/123/38
f 331/7/79 338/7/80 333/25/79
f 334/242/36 346/243/81 434/243/36
f 332/13/41 389/13/41 335/15/41
f 336/1/42 390/4/43 330/4/42
f 333/25/82 339/9/82 426/9/83
f 429/15/84 335/15/84 337/41/84
s 1
f 337/21/85 336/1/85 428/1/85
s 0
f 330/4/47 390/4/47 338/7/47
f 339/9/86 389/13/86 332/13/86
f 336/44/14 337/17/14 340/244/14
f 431/246/14 390/96/14 336/44/14
f 338/19/14 390/96/14 431/246/14
f 432/248/14 333/99/14 338/19/14
f 339/49/14 333/99/14 432/248/14
f 433/242/14 389/50/14 339/49/14
f 335/18/14 389/50/14 433/242/14
f 340/244/14 337/17/14 335/18/14
f 343/245/14 345/244/14 346/243/14
f 346/243/14 334/242/14 341/249/14
f 341/249/14 344/248/14 342/247/14
f 342/247/14 391/246/14 343/245/14
f 343/245/14 346/243/14 341/249/14
f 344/248/87 341/249/88 436/249/50
f 431/246/89 391/246/90 342/247/89
f 345/244/76 343/245/76 435/245/28
f 346/243/91 345/244/91 340/244/91
f 341/249/35 334/242/92 433/242/54
f 430/247/93 342/247/93 344/248/93
f 343/245/94 391/246/94 431/246/29
f 347/250/57 385/327/57 348/1/57
f 352/4/58 348/1/58 385/327/58
f 350/251/58 381/328/58 351/103/58
f 352/4/58 385/327/58 350/251/58
f 355/7/59 352/4/59 354/253/59
f 352/4/59 351/103/59 353/252/59
f 351/103/59 384/329/59 353/252/59
f 355/7/60 354/253/60 356/254/60
f 356/254/61 382/330/61 358/9/61
f 361/13/62 358/9/62 382/330/62
f 359/255/62 383/331/62 360/110/62
f 361/13/62 382/330/62 359/255/62
f 364/15/63 361/13/63 363/257/63
f 361/13/63 360/110/63 362/256/63
f 360/110/63 392/332/63 362/256/63
f 364/15/64 363/257/64 347/258/64
f 357/25/65 372/25/65 365/7/65
f 366/15/63 374/15/63 367/13/63
f 364/15/66 366/15/66 368/13/66
f 348/1/67 352/4/67 369/4/67
f 357/25/68 358/9/68 371/9/68
f 349/41/69 373/41/69 366/15/69
f 349/21/70 348/1/70 370/1/70
f 355/7/71 365/7/71 369/4/71
f 358/9/72 361/13/72 368/13/72
f 374/18/13 378/17/13 380/44/13
f 380/44/13 377/96/13 374/18/13
f 377/96/13 375/19/13 374/18/13
f 375/19/13 376/99/13 379/49/13
f 379/49/13 367/50/13 375/19/13
f 371/9/61 379/9/61 376/25/61
f 365/7/59 375/7/59 377/4/59
f 370/1/57 380/1/57 378/21/57
f 373/41/64 378/41/64 374/15/64
f 368/13/62 367/13/62 379/9/62
f 372/25/60 376/25/60 375/7/60
f 369/4/58 377/4/58 380/1/58
f 362/259/26 392/333/26 381/260/26
f 354/334/73 353/269/73 356/264/73
f 353/269/73 359/262/73 356/264/73
f 353/261/14 384/260/14 383/265/14
f 351/108/74 381/268/74 384/267/74
f 381/268/74 392/335/74 383/266/74
f 392/335/74 360/109/74 383/266/74
s 1
f 363/336/95 362/262/95 347/271/95
s 0
f 362/262/96 350/269/96 347/271/96
f 393/101/5 394/1/5 395/21/5
f 394/1/6 396/103/6 397/4/6
f 396/103/7 398/7/7 397/4/7
f 398/7/8 399/105/8 400/25/8
f 400/25/1 401/106/1 402/9/1
f 402/9/2 403/110/2 404/13/2
f 405/337/97 406/338/97 407/337/97
f 403/110/3 408/15/3 404/13/3
f 409/123/10 395/41/10 408/15/10
f 394/44/15 398/19/15 402/49/15
f 410/339/9 393/121/9 405/337/9
f 410/339/9 396/108/9 411/176/9
f 412/340/9 396/108/9 413/341/9
f 412/340/9 399/122/9 414/107/9
f 415/342/9 401/177/9 399/122/9
f 416/343/9 401/177/9 417/344/9
f 418/338/9 403/109/9 416/343/9
f 405/337/9 409/120/9 418/338/9
f 419/342/9 420/340/9 421/341/9
f 416/343/2 422/344/2 423/343/2
f 415/342/8 420/340/8 419/342/8
f 410/339/6 421/341/6 413/341/6
f 416/343/3 406/338/3 418/338/3
f 415/342/98 422/344/98 417/344/98
f 413/341/7 420/340/7 412/340/7
f 405/337/5 424/339/5 410/339/5
f 393/101/5 411/102/5 394/1/5
f 394/1/6 411/102/6 396/103/6
f 396/103/7 414/104/7 398/7/7
f 398/7/8 414/104/8 399/105/8
f 400/25/1 399/105/1 401/106/1
f 402/9/2 401/106/2 403/110/2
f 405/337/10 418/338/10 406/338/10
f 403/110/3 409/123/3 408/15/3
f 409/123/10 393/111/10 395/41/10
f 408/18/15 395/17/15 394/44/15
f 394/44/15 397/96/15 398/19/15
f 398/19/15 400/99/15 402/49/15
s 1
f 402/49/15 404/50/15 408/18/15
s 0
f 408/18/15 394/44/15 402/49/15
f 410/339/9 411/176/9 393/121/9
f 410/339/9 413/341/9 396/108/9
f 412/340/9 414/107/9 396/108/9
f 412/340/9 415/342/9 399/122/9
f 415/342/9 417/344/9 401/177/9
f 416/343/9 403/109/9 401/177/9
f 418/338/9 409/120/9 403/109/9
f 405/337/9 393/121/9 409/120/9
f 421/341/9 424/339/9 423/343/9
f 424/339/9 407/337/9 423/343/9
f 407/337/9 406/338/9 423/343/9
f 423/343/9 422/344/9 421/341/9
f 422/344/9 419/342/9 421/341/9
f 416/343/2 417/344/2 422/344/2
f 415/342/8 412/340/8 420/340/8
f 410/339/6 424/339/6 421/341/6
f 416/343/3 423/343/3 406/338/3
f 415/342/1 419/342/1 422/344/1
f 413/341/7 421/341/7 420/340/7
f 405/337/5 407/337/5 424/339/5
f 437/345/99 438/346/99 439/347/99
f 440/54/100 441/348/100 442/349/100
f 442/349/101 443/350/101 444/351/101
f 445/352/9 440/353/9 437/345/9
f 446/354/102 447/355/102 437/345/102
f 448/21/2 449/356/2 450/357/2
f 451/4/3 449/356/3 452/1/3
f 453/7/10 454/358/10 451/4/10
f 455/25/5 456/359/5 453/7/5
f 457/9/6 458/360/6 455/25/6
f 459/13/7 460/361/7 457/9/7
f 461/15/8 462/362/8 459/13/8
f 461/15/1 450/363/1 463/364/1
f 443/365/9 441/366/9 451/96/9
f 464/101/6 465/1/6 466/21/6
f 467/102/7 468/4/7 465/1/7
f 468/4/8 469/104/8 470/7/8
f 469/104/1 471/25/1 470/7/1
f 472/105/2 473/9/2 471/25/2
f 474/15/4 475/367/4 476/368/4
f 474/15/5 464/111/5 466/41/5
f 475/369/103 477/7/103 476/370/103
f 477/7/104 478/371/104 479/7/104
f 480/371/105 481/372/105 482/373/105
f 483/1/101 480/371/101 477/7/101
f 484/374/106 485/375/106 477/7/106
f 486/376/107 487/377/107 480/371/107
f 463/378/9 488/120/9 489/379/9
f 475/380/15 468/96/15 481/381/15
f 490/106/3 491/382/3 482/383/3
f 492/384/108 493/385/108 494/386/108
f 495/387/109 496/388/109 497/389/109
f 498/390/110 486/391/110 499/392/110
f 500/104/111 501/393/111 502/394/111
f 503/395/12 493/385/12 492/384/12
f 496/388/15 479/396/15 478/397/15
f 501/393/102 487/398/102 498/390/102
f 497/399/101 502/394/101 495/387/101
f 504/400/112 485/401/112 484/402/112
f 504/400/9 505/403/9 498/390/9
f 454/404/9 469/107/9 506/108/9
f 507/405/12 438/406/12 508/407/12
f 508/408/9 438/409/9 459/50/9
f 445/410/112 509/411/112 510/412/112
f 445/410/113 508/413/113 509/411/113
f 511/15/114 443/350/114 512/414/114
f 437/345/99 447/355/99 438/346/99
f 440/54/115 513/415/115 441/348/115
f 442/349/101 441/348/101 443/350/101
f 440/353/9 442/416/9 444/417/9
f 444/417/9 511/418/9 440/353/9
f 511/418/9 437/345/9 440/353/9
f 437/345/9 439/347/9 507/419/9
f 507/419/9 445/352/9 437/345/9
f 437/345/116 511/418/116 446/354/116
f 511/418/102 512/420/102 446/354/102
f 448/21/2 452/1/2 449/356/2
f 451/4/3 454/358/3 449/356/3
f 453/7/10 456/359/10 454/358/10
f 455/25/5 458/360/5 456/359/5
f 457/9/117 460/361/117 458/360/117
f 459/13/7 462/362/7 460/361/7
f 461/15/8 463/364/8 462/362/8
f 461/15/1 448/41/1 450/363/1
f 452/44/9 448/17/9 512/421/9
f 448/17/9 461/18/9 446/422/9
f 512/421/9 448/17/9 446/422/9
f 513/423/9 510/424/9 453/19/9
f 441/366/9 513/423/9 453/19/9
f 451/96/9 452/44/9 443/365/9
f 452/44/9 512/421/9 443/365/9
f 441/366/9 453/19/9 451/96/9
f 464/101/6 467/102/6 465/1/6
f 467/102/7 506/103/7 468/4/7
f 468/4/8 506/103/8 469/104/8
f 469/104/1 472/105/1 471/25/1
f 472/105/2 490/106/2 473/9/2
f 476/368/10 489/425/10 488/123/10
f 488/123/10 474/15/10 476/368/10
f 474/15/5 488/123/5 464/111/5
f 475/369/103 483/426/103 477/7/103
f 477/7/101 480/371/101 478/371/101
f 480/371/118 514/104/118 481/372/118
f 483/1/101 514/427/101 480/371/101
f 485/375/106 494/428/106 489/429/106
f 489/429/119 476/370/119 485/375/119
f 476/370/120 477/7/120 485/375/120
f 477/7/106 479/7/106 484/374/106
f 487/377/121 478/371/121 480/371/121
f 480/371/122 482/373/122 486/376/122
f 482/373/123 491/430/123 499/431/123
f 486/376/123 482/373/123 499/431/123
f 515/432/9 499/433/9 491/434/9
f 490/177/9 472/122/9 460/435/9
f 472/122/9 458/436/9 460/435/9
f 493/437/9 515/432/9 491/434/9
f 491/434/9 490/177/9 460/435/9
f 491/434/9 460/435/9 462/438/9
f 494/439/9 493/437/9 489/379/9
f 493/437/9 491/434/9 489/379/9
f 489/379/9 491/434/9 462/438/9
f 450/440/9 464/121/9 488/120/9
f 489/379/9 462/438/9 463/378/9
f 463/378/9 450/440/9 488/120/9
f 475/380/124 474/18/124 466/17/124
f 466/17/15 465/44/15 475/380/15
f 465/44/15 468/96/15 475/380/15
f 468/96/15 470/19/15 481/381/15
f 470/19/15 471/99/15 481/381/15
f 471/99/125 473/49/125 481/381/125
f 481/381/15 514/441/15 483/426/15
f 481/381/15 483/426/15 475/380/15
f 482/383/3 481/442/3 473/9/3
f 473/9/3 490/106/3 482/383/3
f 494/386/108 485/443/108 504/400/108
f 504/400/108 492/384/108 494/386/108
f 495/387/109 505/403/109 496/388/109
f 515/444/110 503/395/110 499/392/110
f 503/395/110 498/390/110 499/392/110
f 500/104/111 516/445/111 501/393/111
f 503/395/12 515/444/12 493/385/12
f 487/446/15 516/447/15 478/397/15
f 516/447/15 500/448/15 496/388/15
f 478/397/15 516/447/15 496/388/15
f 500/448/15 497/389/15 496/388/15
f 496/388/15 484/402/15 479/396/15
f 516/445/102 487/398/102 501/393/102
f 487/398/102 486/449/102 498/390/102
f 497/399/101 500/450/101 502/394/101
f 496/388/112 505/403/112 484/402/112
f 505/403/112 504/400/112 484/402/112
f 505/403/9 495/387/9 502/394/9
f 502/394/9 501/393/9 505/403/9
f 501/393/9 498/390/9 505/403/9
f 498/390/9 503/395/9 492/384/9
f 492/384/9 504/400/9 498/390/9
f 467/176/9 464/121/9 449/451/9
f 464/121/9 450/440/9 449/451/9
f 458/436/9 472/122/9 469/107/9
f 456/452/9 458/436/9 469/107/9
f 506/108/9 467/176/9 449/451/9
f 454/404/9 456/452/9 469/107/9
f 506/108/9 449/451/9 454/404/9
f 507/405/12 439/453/12 438/406/12
f 455/99/9 453/19/9 510/424/9
f 455/99/9 510/424/9 509/454/9
f 459/50/9 457/49/9 508/408/9
f 457/49/9 455/99/9 509/454/9
f 447/455/9 446/422/9 461/18/9
f 438/409/9 447/455/9 461/18/9
f 457/49/9 509/454/9 508/408/9
f 438/409/9 461/18/9 459/50/9
f 510/412/112 513/456/112 440/457/112
f 440/457/112 445/410/112 510/412/112
f 445/410/113 507/104/113 508/413/113
f 511/15/114 444/351/114 443/350/114
f 517/426/26 518/9/26 519/458/26
f 518/9/9 520/459/9 521/460/9
f 522/106/126 523/461/126 524/461/126
f 517/1/74 520/459/74 525/7/74
f 526/462/9 527/463/9 528/464/9
f 518/9/26 529/458/26 519/458/26
f 521/460/9 530/9/9 518/9/9
f 523/461/127 531/106/127 532/461/127
f 530/9/26 533/458/26 529/458/26
f 528/464/128 534/465/128 535/466/128
f 536/467/13 528/464/13 535/466/13
f 536/467/129 537/467/129 538/468/129
f 539/469/130 540/470/130 541/471/130
f 542/472/15 529/458/15 543/473/15
f 520/459/131 544/460/131 521/460/131
f 545/474/15 519/458/15 542/472/15
f 546/104/132 524/461/132 547/371/132
f 548/475/133 549/476/133 550/476/133
f 551/477/15 552/478/15 533/458/15
f 526/462/134 553/463/134 527/463/134
f 554/479/135 555/480/135 556/480/135
f 557/9/136 558/481/136 559/15/136
f 560/462/9 524/461/9 523/461/9
f 553/463/9 523/461/9 532/461/9
f 544/460/9 547/371/9 524/461/9
f 541/471/9 561/482/9 562/483/9
f 550/476/137 562/483/137 563/483/137
f 545/484/74 564/484/74 546/427/74
f 557/9/26 559/458/26 565/9/26
f 563/483/135 566/485/135 567/485/135
f 521/460/138 560/462/138 526/462/138
f 567/485/139 568/9/139 565/9/139
f 546/441/15 569/472/15 522/486/15
f 522/486/15 570/473/15 571/486/15
f 571/486/15 572/487/15 531/486/15
f 573/458/15 559/458/15 558/488/15
f 533/458/139 574/479/139 554/479/139
f 531/54/13 534/465/13 527/463/13
f 534/487/134 570/473/134 543/473/134
f 541/471/140 558/481/140 561/482/140
f 543/473/138 569/472/138 542/472/138
f 575/489/133 537/490/133 536/490/133
f 542/472/131 564/474/131 545/474/131
f 556/480/137 576/489/137 575/489/137
f 577/491/7 578/492/7 579/493/7
f 580/494/2 552/495/2 551/496/2
f 581/497/6 582/498/6 578/492/6
f 583/499/3 551/496/3 584/500/3
f 581/501/9 577/502/9 530/9/9
f 578/503/15 582/504/15 543/473/15
f 585/505/10 583/499/10 584/500/10
f 586/506/8 579/493/8 587/507/8
f 588/508/1 587/509/1 552/495/1
f 589/510/5 585/505/5 582/498/5
f 517/426/26 525/7/26 518/9/26
f 518/9/9 525/7/9 520/459/9
f 522/106/126 571/106/126 523/461/126
f 517/1/74 545/484/74 520/459/74
f 565/9/9 530/9/9 586/511/9
f 565/9/9 586/511/9 588/512/9
f 550/476/9 563/483/9 526/462/9
f 563/483/9 567/485/9 590/513/9
f 565/9/9 588/512/9 580/514/9
f 583/515/9 590/513/9 567/485/9
f 590/513/9 526/462/9 563/483/9
f 567/485/9 565/9/9 580/514/9
f 567/485/9 580/514/9 583/515/9
f 528/464/9 548/475/9 526/462/9
f 548/475/9 550/476/9 526/462/9
f 518/9/26 530/9/26 529/458/26
f 521/460/9 526/462/9 530/9/9
f 523/461/127 571/106/127 531/106/127
f 530/9/26 565/9/26 533/458/26
f 528/464/128 527/463/128 534/465/128
f 536/467/13 548/475/13 528/464/13
f 538/468/129 539/469/129 548/475/129
f 539/469/129 591/475/129 548/475/129
f 548/475/141 536/467/141 538/468/141
f 539/469/130 538/468/130 540/470/130
f 542/472/15 519/458/15 529/458/15
f 520/459/131 592/459/131 544/460/131
f 545/474/15 517/426/15 519/458/15
f 546/104/132 522/106/132 524/461/132
f 548/475/133 591/475/133 549/476/133
f 535/516/15 534/487/15 543/473/15
f 543/473/15 585/517/15 556/480/15
f 585/517/15 584/518/15 554/479/15
f 543/473/15 556/480/15 575/489/15
f 536/490/15 535/516/15 543/473/15
f 554/479/15 556/480/15 585/517/15
f 575/489/15 536/490/15 543/473/15
f 533/458/15 554/479/15 551/477/15
f 551/477/15 554/479/15 584/518/15
f 587/519/15 529/458/15 533/458/15
f 552/478/15 587/519/15 533/458/15
f 526/462/134 560/462/134 553/463/134
f 554/479/135 574/479/135 555/480/135
s 1
f 557/9/136 561/482/136 558/481/136
s 0
f 560/462/9 544/460/9 524/461/9
f 553/463/9 560/462/9 523/461/9
f 544/460/9 592/459/9 547/371/9
f 557/9/9 568/9/9 561/482/9
f 568/9/9 566/485/9 561/482/9
f 562/483/9 549/476/9 539/469/9
f 549/476/9 591/475/9 539/469/9
f 566/485/9 562/483/9 561/482/9
f 539/469/9 541/471/9 562/483/9
f 550/476/137 549/476/137 562/483/137
f 546/427/74 547/371/74 545/484/74
f 547/371/74 592/459/74 520/459/74
f 545/484/74 547/371/74 520/459/74
f 573/458/26 533/458/26 559/458/26
f 533/458/26 565/9/26 559/458/26
f 565/9/26 568/9/26 557/9/26
f 563/483/135 562/483/135 566/485/135
f 521/460/138 544/460/138 560/462/138
f 567/485/139 566/485/139 568/9/139
f 546/441/15 564/474/15 569/472/15
f 522/486/15 569/472/15 570/473/15
f 571/486/15 570/473/15 572/487/15
f 538/520/15 537/490/15 576/489/15
f 555/480/15 574/479/15 558/488/15
f 574/479/15 573/458/15 558/488/15
f 538/520/15 576/489/15 555/480/15
f 558/488/15 540/521/15 555/480/15
f 540/521/15 538/520/15 555/480/15
f 533/458/139 573/458/139 574/479/139
f 553/463/13 532/461/13 527/463/13
f 532/461/13 531/54/13 527/463/13
f 531/54/13 572/465/13 534/465/13
f 534/487/134 572/487/134 570/473/134
f 541/471/140 540/470/140 558/481/140
f 543/473/138 570/473/138 569/472/138
f 575/489/133 576/489/133 537/490/133
f 542/472/131 569/472/131 564/474/131
f 556/480/137 555/480/137 576/489/137
f 577/491/7 581/497/7 578/492/7
f 580/494/2 588/508/2 552/495/2
f 581/497/6 589/510/6 582/498/6
f 583/499/3 580/494/3 551/496/3
f 526/462/9 590/513/9 589/522/9
f 526/462/9 589/522/9 581/501/9
f 577/502/9 586/511/9 530/9/9
f 530/9/9 526/462/9 581/501/9
f 529/458/15 587/519/15 579/523/15
f 529/458/15 579/523/15 578/503/15
f 582/504/15 585/517/15 543/473/15
f 543/473/15 529/458/15 578/503/15
f 585/505/10 590/524/10 583/499/10
f 586/506/8 577/491/8 579/493/8
f 588/508/1 586/525/1 587/509/1
f 589/510/5 590/524/5 585/505/5
usemtl 9K32M_Strela-2M_1_Material_7
f 593/101/142 594/427/142 595/526/142
f 596/102/143 597/527/143 594/427/143
f 597/527/144 598/104/144 599/371/144
f 599/371/145 600/105/145 601/528/145
f 601/528/146 602/106/146 603/461/146
f 603/461/147 604/110/147 605/529/147
f 598/104/148 606/105/148 600/105/148
f 604/110/149 607/54/149 605/529/149
f 608/123/150 595/530/150 607/54/150
f 609/19/13 610/49/13 611/18/13
f 612/111/151 613/123/151 614/111/151
f 604/110/152 615/123/152 608/123/152
f 616/103/153 617/102/153 618/103/153
f 600/105/154 619/106/154 602/106/154
f 593/111/155 615/123/155 612/111/155
f 596/102/156 612/101/156 617/102/156
f 598/104/157 618/103/157 620/104/157
f 602/106/158 621/110/158 604/110/158
f 622/106/159 623/105/159 624/106/159
f 619/106/160 625/110/160 621/110/160
f 620/104/161 626/105/161 606/105/161
f 618/103/162 627/102/162 628/103/162
f 621/110/163 613/123/163 615/123/163
f 606/105/164 622/106/164 619/106/164
f 620/104/165 628/103/165 629/104/165
f 617/102/166 614/101/166 627/102/166
f 630/110/167 631/123/167 632/123/167
f 629/104/168 633/103/168 634/104/168
f 614/101/169 635/102/169 627/102/169
f 613/123/170 636/111/170 614/111/170
f 625/110/171 624/106/171 630/110/171
f 626/105/172 634/104/172 623/105/172
f 628/103/173 635/102/173 633/103/173
f 625/110/174 632/123/174 613/123/174
f 637/122/175 638/107/175 639/108/175
f 623/105/176 640/106/176 624/106/176
f 634/104/177 639/103/177 638/104/177
f 635/102/178 641/101/178 642/102/178
f 636/111/179 631/123/179 641/111/179
f 624/106/180 643/110/180 630/110/180
f 634/104/181 637/105/181 623/105/181
f 633/103/182 642/102/182 639/103/182
f 607/54/64 644/41/64 611/15/64
f 605/529/63 611/15/63 645/13/63
f 603/461/62 645/13/62 610/9/62
f 601/528/61 610/9/61 646/25/61
f 599/371/60 646/25/60 609/7/60
f 597/527/59 609/7/59 647/4/59
f 594/427/58 647/4/58 648/1/58
f 595/526/57 648/1/57 644/21/57
f 593/101/142 596/102/142 594/427/142
f 596/102/143 616/103/143 597/527/143
f 597/527/144 616/103/144 598/104/144
f 599/371/145 598/104/145 600/105/145
f 601/528/146 600/105/146 602/106/146
f 603/461/147 602/106/147 604/110/147
f 598/104/183 620/104/183 606/105/183
f 604/110/149 608/123/149 607/54/149
f 608/123/150 593/111/150 595/530/150
f 611/18/13 644/17/13 648/44/13
f 648/44/13 647/96/13 609/19/13
f 609/19/13 646/99/13 610/49/13
f 610/49/13 645/50/13 611/18/13
f 611/18/13 648/44/13 609/19/13
s 1
f 612/111/184 615/123/184 613/123/184
s 0
f 604/110/185 621/110/185 615/123/185
f 616/103/186 596/102/186 617/102/186
f 600/105/187 606/105/187 619/106/187
f 593/111/188 608/123/188 615/123/188
f 596/102/189 593/101/189 612/101/189
f 598/104/190 616/103/190 618/103/190
s 1
f 602/106/191 619/106/191 621/110/191
s 0
f 622/106/192 626/105/192 623/105/192
f 619/106/193 622/106/193 625/110/193
f 620/104/194 629/104/194 626/105/194
f 618/103/195 617/102/195 627/102/195
f 621/110/196 625/110/196 613/123/196
f 606/105/197 626/105/197 622/106/197
f 620/104/198 618/103/198 628/103/198
f 617/102/199 612/101/199 614/101/199
f 630/110/200 643/110/200 631/123/200
f 629/104/201 628/103/201 633/103/201
f 614/101/202 636/101/202 635/102/202
f 613/123/203 632/123/203 636/111/203
f 625/110/204 622/106/204 624/106/204
f 626/105/205 629/104/205 634/104/205
f 628/103/206 627/102/206 635/102/206
f 625/110/207 630/110/207 632/123/207
f 639/108/208 642/176/208 643/109/208
f 642/176/175 641/121/175 643/109/175
f 641/121/208 631/120/208 643/109/208
f 643/109/208 640/177/208 639/108/208
f 640/177/208 637/122/208 639/108/208
f 623/105/209 637/105/209 640/106/209
f 634/104/210 633/103/210 639/103/210
f 635/102/211 636/101/211 641/101/211
f 636/111/212 632/123/212 631/123/212
s 1
f 624/106/213 640/106/213 643/110/213
s 0
f 634/104/214 638/104/214 637/105/214
f 633/103/215 635/102/215 642/102/215
f 607/54/64 595/530/64 644/41/64
f 605/529/63 607/54/63 611/15/63
f 603/461/62 605/529/62 645/13/62
f 601/528/61 603/461/61 610/9/61
f 599/371/60 601/528/60 646/25/60
f 597/527/59 599/371/59 609/7/59
f 594/427/58 597/527/58 647/4/58
f 595/526/57 594/427/57 648/1/57
