# Blender 5.2.2 LTS
# www.blender.org
mtllib str4.mtl
o 9K32M_Strela-2M_1_Launch_Tube_1_9K32M_Strela-2M_1_Material_1_0.005
v 0.023089 0.059317 0.258377
v 0.016329 0.042989 0.258378
v -0.023089 0.059317 0.258377
v 0.000000 0.076832 0.256291
v -0.014239 0.095065 -0.072306
v -0.014239 0.080220 -0.072306
v -0.014239 0.080220 -0.013561
v 0.014239 0.080220 -0.072306
v 0.014239 0.080220 -0.013561
v 0.014239 0.077618 0.006394
v 0.014239 0.070253 -0.013561
v -0.014239 0.070253 0.006394
v 0.014239 0.070253 0.006394
v 0.014239 0.095065 -0.009477
v 0.014239 0.095065 -0.072306
v 0.014239 0.088856 -0.009477
v -0.014239 0.095065 -0.009477
v -0.014239 0.088856 -0.009477
v -0.014239 0.077618 0.006394
v -0.012028 0.070253 -0.079767
v -0.018777 0.080220 -0.074667
v -0.012028 0.080220 -0.079767
v 0.018777 0.070253 -0.074667
v 0.012028 0.080220 -0.079767
v 0.018777 0.080220 -0.074667
v 0.012028 0.070253 -0.079767
v -0.018777 0.080220 -0.016711
v -0.014239 0.070253 -0.013561
v 0.018777 0.080220 -0.016711
v 0.018777 0.070253 -0.016711
v -0.018777 0.070253 -0.074667
v -0.018777 0.070253 -0.016711
v 0.068627 0.191790 0.313512
v 0.074462 0.204734 0.315929
v 0.074462 0.191790 0.315929
v 0.076879 0.204734 0.321764
v 0.076879 0.191790 0.321764
v 0.074462 0.204734 0.327599
v 0.074462 0.191790 0.327599
v 0.068627 0.191790 0.330016
v 0.068627 0.204734 0.330016
v 0.062792 0.191790 0.327599
v 0.062792 0.204734 0.327599
v 0.060375 0.191790 0.321764
v 0.060375 0.204734 0.321764
v 0.062792 0.191790 0.315929
v 0.068627 0.204734 0.313512
v 0.065438 0.191790 0.318575
v 0.064117 0.192383 0.321764
v 0.064117 0.191790 0.321764
v 0.068627 0.191790 0.317254
v 0.071816 0.191790 0.318575
v 0.073137 0.191790 0.321764
v 0.071816 0.191790 0.324953
v 0.068627 0.191790 0.326274
v 0.065438 0.191790 0.324953
v 0.071816 0.192383 0.324953
v 0.065438 0.192383 0.324953
v 0.065438 0.192383 0.318575
v 0.068627 0.192383 0.326274
v 0.073137 0.192383 0.321764
v 0.068627 0.192383 0.317254
v 0.071816 0.192383 0.318575
v 0.062792 0.204734 0.315929
v 0.016342 0.042976 0.268672
v 0.000000 0.036207 0.268672
v -0.023111 0.059317 0.268672
v -0.016342 0.075659 0.268672
v 0.000000 0.082428 0.268672
v 0.016342 0.075659 0.268672
v 0.023111 0.059317 0.268672
v -0.016342 0.042976 0.268672
v 0.000000 0.036222 0.258379
v -0.014911 0.044407 0.256328
v 0.000000 0.038231 0.256328
v -0.016329 0.042989 0.258378
v 0.000000 0.082412 0.258379
v 0.016330 0.075647 0.258379
v -0.016329 0.075646 0.258378
v 0.012383 0.046934 0.256287
v 0.017524 0.059317 0.235813
v 0.017515 0.059317 0.256293
v 0.021087 0.059317 0.256328
v 0.014911 0.074228 0.256328
v -0.014911 0.074228 0.256328
v 0.014911 0.044407 0.256328
v -0.021087 0.059317 0.256328
v 0.000000 0.080404 0.256328
v 0.000000 0.041802 0.256295
v -0.017515 0.059317 0.256295
v -0.012383 0.071700 0.256282
v 0.012385 0.071703 0.256297
v -0.012385 0.046932 0.256295
v 0.000000 0.041793 0.235813
v -0.017524 0.059317 0.235813
v 0.000000 0.076841 0.235813
v -0.012391 0.071709 0.235813
v -0.012391 0.046926 0.235813
v 0.012391 0.071709 0.235813
v 0.012391 0.046926 0.235813
vn -1.0000 -0.0000 -0.0000
vn -0.0000 -0.0000 -1.0000
vn 1.0000 -0.0000 -0.0000
vn -0.0000 -0.0000 1.0000
vn -0.0000 1.0000 -0.0000
vn -0.0000 0.8161 0.5779
vn -0.6029 -0.0000 -0.7978
vn 0.6029 -0.0000 -0.7978
vn -0.5702 -0.0000 0.8215
vn 0.5702 -0.0000 0.8215
vn -0.0000 -1.0000 -0.0000
vn -0.0000 -1.0000 0.0001
vn 0.3827 -0.0000 -0.9239
vn 0.9239 -0.0000 -0.3827
vn 0.9239 -0.0000 0.3827
vn 0.3827 -0.0000 0.9239
vn -0.3827 -0.0000 0.9239
vn -0.9239 -0.0000 0.3827
vn -0.9239 -0.0000 -0.3827
vn -0.3827 -0.0000 -0.9239
vn 0.3827 -0.0001 -0.9239
vn 0.3827 0.0001 0.9239
vn -0.3827 -0.0001 -0.9239
vn 0.3827 -0.9239 -0.0000
vn 0.3827 -0.9239 -0.0001
vn -0.2832 -0.6837 -0.6725
vn -0.9239 -0.3827 -0.0000
vn -0.9239 -0.3827 -0.0001
vn 0.9239 -0.3827 -0.0001
vn 0.9239 -0.3827 -0.0000
vn 0.3827 0.9239 -0.0000
vn 0.3827 0.9239 -0.0002
vn -0.9239 0.3827 -0.0000
vn -0.3827 -0.9239 -0.0000
vn -0.3827 -0.9239 -0.0001
vn 0.9239 0.3827 -0.0000
vn -0.3827 0.9239 -0.0000
vn 0.9238 -0.3828 0.0004
vn 0.6837 0.2832 -0.6725
vn -0.2832 0.6837 -0.6726
vn 0.2832 -0.6837 -0.6726
vn -0.6837 -0.2832 -0.6726
vn 0.6837 -0.2832 -0.6725
vn 0.2832 0.6837 -0.6726
vn 0.2832 0.6837 -0.6725
vn -0.6837 0.2832 -0.6726
vn 0.3826 0.9239 0.0004
vn -0.9239 0.3827 0.0001
vn -0.9239 0.3827 -0.0001
vn -0.9239 0.3827 0.0004
vn -0.3827 -0.9239 -0.0002
vn 0.9239 0.3826 0.0004
vn -0.3827 0.9239 0.0001
vn 0.3826 -0.9239 -0.0002
vn -0.9239 -0.3827 0.0004
vn -0.2832 -0.6837 -0.6726
vn 0.3827 0.9239 -0.0001
vn 0.9239 0.3827 -0.0001
vn -0.3827 0.9239 -0.0002
vn -0.3827 0.9239 -0.0001
vn 0.9239 -0.3827 0.0002
vn 0.9239 -0.3827 0.0005
vn 0.6836 0.2832 -0.6726
vn -0.2832 0.6837 -0.6725
vn 0.6837 -0.2832 -0.6726
vn 0.2832 0.6836 -0.6727
vn -0.6837 0.2832 -0.6725
vn 0.3827 0.9239 0.0004
vn -0.9238 0.3828 0.0002
vn -0.9238 0.3829 0.0006
vn -0.3827 -0.9239 0.0001
vn 0.9239 0.3827 0.0004
vn -0.3827 0.9239 0.0004
vn 0.3827 -0.9239 -0.0002
vn -0.9239 -0.3827 0.0001
vt 0.625000 0.750000
vt 0.475429 0.750000
vt 0.469698 0.955295
vt 0.475429 0.500000
vt 0.469698 0.294705
vt 0.456538 0.250000
vt 0.375000 0.313389
vt 0.375000 0.000000
vt 0.375000 0.250000
vt 0.875000 0.500000
vt 0.625000 0.250000
vt 0.625000 0.500000
vt 0.530520 0.250000
vt 0.625000 0.000000
vt 0.530520 0.000000
vt 0.456538 0.000000
vt 0.375000 0.707385
vt 0.625000 0.761829
vt 0.625000 0.707385
vt 0.375000 0.488171
vt 0.639205 0.528410
vt 0.625000 0.488171
vt 0.360795 0.528410
vt 0.625000 0.990906
vt 0.375011 0.998897
vt 0.625000 0.998897
vt 0.625000 0.259094
vt 0.365710 0.232499
vt 0.375000 0.259094
vt 0.375000 0.761829
vt 0.375000 0.990906
vt 0.125000 0.488171
vt 0.167615 0.500000
vt 0.642024 0.486873
vt 0.375000 0.936611
vt 0.375000 1.000000
vt 0.456538 1.000000
vt 0.530520 1.000000
vt 0.625000 1.000000
vt 0.875000 0.250000
vt 0.634302 0.232499
vt 0.125000 0.259094
vt 0.125000 0.250000
vt 0.125000 0.313389
vt 0.832385 0.500000
vt 0.875000 0.488171
vt 0.875000 0.259094
vt 0.845017 0.475616
vt 0.847095 0.251103
vt 1.000000 0.500000
vt 0.875000 0.000000
vt 0.750000 0.000000
vt 0.750000 0.500000
vt 0.500000 0.500000
vt 0.500000 0.000000
vt 0.375000 0.500000
vt 0.250000 0.500000
vt 0.419706 0.919706
vt 0.490000 0.750000
vt 0.010000 0.750000
vt 0.250000 0.000000
vt 0.125000 0.500000
vt 0.000000 0.000000
vt 0.000000 0.500000
vt 0.589065 0.589065
vt 0.522403 0.750000
vt 0.750000 0.522403
vt 0.919706 0.580294
vt 0.910935 0.589065
vt 0.977597 0.750000
vt 0.990000 0.750000
vt 0.919706 0.919706
vt 0.910935 0.910935
vt 0.750000 0.990000
vt 0.750000 0.977597
vt 0.580294 0.919706
vt 0.589065 0.910935
vt 0.510000 0.750000
vt 0.580294 0.580294
vt 0.750000 0.510000
vt 1.000000 0.000000
vt 0.419706 0.580294
vt 0.250000 0.510000
vt 0.080294 0.580294
vt 0.080294 0.919706
vt 0.250000 0.990000
vt 0.125000 0.000000
vt 0.750000 0.939252
vt 0.883821 0.883821
vt 0.616179 0.883821
vt 0.560748 0.750000
vt 0.939252 0.750000
vt 0.883821 0.616179
vt 0.750000 0.560748
vt 0.616179 0.616179
vt 0.861210 0.861210
vt 0.907275 0.750000
vt 0.750000 0.907275
vt 0.592725 0.750000
vt 0.638790 0.638790
vt 0.750000 0.592725
vt 0.861210 0.638790
vt 0.638790 0.861210
s 0
usemtl 9K32M_Strela-2M_1_Material_4
f 5/1/1 6/2/1 7/3/1
f 5/1/2 8/4/2 6/2/2
f 9/5/3 10/6/3 11/7/3
f 10/6/4 12/8/4 13/9/4
f 5/10/5 14/11/5 15/12/5
f 16/13/4 17/14/4 18/15/4
f 10/6/6 18/15/6 19/16/6
f 20/17/7 21/18/7 22/19/7
f 23/20/8 24/21/8 25/22/8
f 22/19/2 26/23/2 20/17/2
f 27/24/9 28/25/9 7/26/9
f 29/27/10 11/28/10 30/29/10
f 27/24/1 31/30/1 32/31/1
f 31/32/11 20/33/11 26/23/11
f 8/34/5 29/27/5 25/22/5
f 25/22/3 30/29/3 23/20/3
f 28/35/1 12/36/1 19/37/1
f 18/38/1 17/39/1 7/3/1
f 17/39/1 5/1/1 7/3/1
f 28/35/1 19/37/1 7/3/1
f 19/37/1 18/38/1 7/3/1
f 5/1/2 15/12/2 8/4/2
f 9/5/3 8/4/3 15/12/3
f 15/12/3 14/11/3 9/5/3
f 14/11/3 16/13/3 9/5/3
f 16/13/3 10/6/3 9/5/3
f 10/6/3 13/9/3 11/7/3
f 10/6/4 19/16/4 12/8/4
f 5/10/5 17/40/5 14/11/5
f 16/13/4 14/11/4 17/14/4
f 10/6/6 16/13/6 18/15/6
f 20/17/7 31/30/7 21/18/7
f 23/20/8 26/23/8 24/21/8
f 22/19/2 24/21/2 26/23/2
f 27/24/9 32/31/9 28/25/9
f 29/27/10 9/41/10 11/28/10
f 27/24/1 21/18/1 31/30/1
f 23/20/11 30/29/11 31/32/11
f 30/29/12 11/7/12 32/42/12
f 31/32/11 30/29/11 32/42/11
f 11/7/11 13/9/11 12/43/11
f 28/44/12 32/42/12 11/7/12
f 11/7/11 12/43/11 28/44/11
f 26/23/11 23/20/11 31/32/11
f 8/34/5 9/41/5 29/27/5
f 25/22/5 24/21/5 8/34/5
f 24/21/5 22/45/5 8/34/5
f 21/46/5 27/47/5 6/48/5
f 27/47/5 7/49/5 6/48/5
f 22/45/5 21/46/5 6/48/5
f 8/34/5 22/45/5 6/48/5
f 25/22/3 29/27/3 30/29/3
f 33/50/13 34/51/13 35/10/13
f 35/10/14 36/52/14 37/53/14
f 37/53/15 38/14/15 39/12/15
f 38/14/16 40/54/16 39/12/16
f 41/55/17 42/56/17 40/54/17
f 43/8/18 44/57/18 42/56/18
f 38/58/5 36/59/5 45/60/5
f 45/61/19 46/62/19 44/57/19
f 46/62/20 47/63/20 33/64/20
f 48/65/15 49/66/15 50/66/15
f 51/67/11 35/68/11 52/69/11
f 53/70/11 35/68/11 37/71/11
f 53/70/11 39/72/11 54/73/11
f 54/73/11 40/74/11 55/75/11
f 55/75/11 42/76/11 56/77/11
f 56/77/11 44/78/11 50/66/11
f 50/66/11 46/79/11 48/65/11
f 48/65/11 33/80/11 51/67/11
f 57/73/11 58/77/11 59/65/11
f 55/75/21 58/77/21 60/75/21
f 54/73/19 61/70/19 53/70/19
f 52/69/17 62/67/17 51/67/17
f 51/67/22 59/65/22 48/65/22
f 56/77/14 49/66/14 58/77/14
f 54/73/20 60/75/20 57/73/20
f 52/69/18 61/70/18 63/69/18
f 33/50/13 47/81/13 34/51/13
f 35/10/14 34/51/14 36/52/14
f 37/53/15 36/52/15 38/14/15
f 38/14/16 41/55/16 40/54/16
f 41/55/17 43/8/17 42/56/17
f 43/8/18 45/61/18 44/57/18
s 1
f 36/59/5 34/82/5 45/60/5
s 0
f 34/82/5 47/83/5 45/60/5
f 47/83/5 64/84/5 45/60/5
f 45/60/5 43/85/5 41/86/5
f 41/86/5 38/58/5 45/60/5
f 45/61/19 64/87/19 46/62/19
f 46/62/20 64/87/20 47/63/20
f 48/65/15 59/65/15 49/66/15
f 51/67/11 33/80/11 35/68/11
f 53/70/11 52/69/11 35/68/11
f 53/70/11 37/71/11 39/72/11
f 54/73/11 39/72/11 40/74/11
f 55/75/11 40/74/11 42/76/11
f 56/77/11 42/76/11 44/78/11
f 50/66/11 44/78/11 46/79/11
f 48/65/11 46/79/11 33/80/11
f 59/65/11 62/67/11 63/69/11
f 63/69/11 61/70/11 59/65/11
f 61/70/11 57/73/11 59/65/11
f 57/73/11 60/75/11 58/77/11
f 58/77/11 49/66/11 59/65/11
f 55/75/13 56/77/13 58/77/13
f 54/73/19 57/73/19 61/70/19
f 52/69/17 63/69/17 62/67/17
f 51/67/16 62/67/16 59/65/16
f 56/77/14 50/66/14 49/66/14
f 54/73/23 55/75/23 60/75/23
f 52/69/18 53/70/18 61/70/18
f 66/88/24 2/89/25 65/89/25
f 73/88/26 74/90/26 75/88/26
f 67/91/27 76/90/27 72/90/28
f 65/89/29 1/92/30 71/92/29
f 70/93/31 77/94/32 69/94/31
f 68/95/33 3/91/33 67/91/33
f 72/90/34 73/88/34 66/88/35
f 71/92/36 78/93/36 70/93/36
f 69/94/37 79/95/37 68/95/37
f 80/96/38 81/97/38 82/97/38
f 78/93/39 83/92/39 84/93/39
f 77/94/40 85/95/40 79/95/40
f 73/88/41 86/89/41 2/89/41
f 76/90/42 87/91/42 74/90/42
f 2/89/43 83/92/43 1/92/43
f 78/93/44 88/94/45 77/94/44
f 79/95/46 87/91/46 3/91/46
f 80/96/2 75/88/2 89/98/2
f 90/99/2 85/95/2 91/100/2
f 4/101/2 85/95/2 88/94/2
f 4/101/2 84/93/2 92/102/2
f 82/97/2 84/93/2 83/92/2
f 82/97/2 86/89/2 80/96/2
f 89/98/2 74/90/2 93/103/2
f 93/103/2 87/91/2 90/99/2
f 81/97/2 94/98/2 95/99/2
f 92/102/47 96/101/47 4/101/47
f 90/99/48 97/100/49 95/99/50
f 89/98/35 98/103/35 94/98/51
f 82/97/52 99/102/52 92/102/52
f 4/101/53 97/100/53 91/100/53
f 89/98/54 100/96/54 80/96/54
f 93/103/55 95/99/28 98/103/28
f 66/88/24 73/88/24 2/89/24
f 73/88/56 76/90/56 74/90/56
f 67/91/28 3/91/27 76/90/27
f 65/89/30 2/89/29 1/92/30
f 70/93/57 78/93/31 77/94/57
f 68/95/33 79/95/49 3/91/49
f 72/90/35 76/90/35 73/88/35
f 71/92/36 1/92/58 78/93/58
f 69/94/59 77/94/59 79/95/60
f 80/96/61 100/96/61 81/97/62
f 78/93/63 1/92/63 83/92/63
f 77/94/64 88/94/64 85/95/64
f 73/88/41 75/88/41 86/89/41
f 76/90/42 3/91/42 87/91/42
f 2/89/65 86/89/65 83/92/65
f 78/93/66 84/93/66 88/94/66
f 79/95/67 85/95/67 87/91/46
f 80/96/2 86/89/2 75/88/2
f 90/99/2 87/91/2 85/95/2
f 4/101/2 91/100/2 85/95/2
f 4/101/2 88/94/2 84/93/2
f 82/97/2 92/102/2 84/93/2
f 82/97/2 83/92/2 86/89/2
f 89/98/2 75/88/2 74/90/2
f 93/103/2 74/90/2 87/91/2
f 95/99/2 97/100/2 96/101/2
f 96/101/2 99/102/2 95/99/2
f 99/102/2 81/97/2 95/99/2
f 81/97/2 100/96/2 94/98/2
f 94/98/2 98/103/2 95/99/2
f 92/102/68 99/102/68 96/101/68
f 90/99/69 91/100/70 97/100/70
f 89/98/51 93/103/71 98/103/71
f 82/97/72 81/97/72 99/102/72
f 4/101/73 96/101/73 97/100/73
f 89/98/74 94/98/25 100/96/25
f 93/103/75 90/99/28 95/99/28
