# Blender 5.2.2 LTS
# www.blender.org
mtllib str5.mtl
o 9K32M_Strela-2M_1_Launch_Tube_1_9K32M_Strela-2M_1_Material_1_0.006
v 0.068627 0.206846 0.050308
v 0.056181 0.219290 0.050310
v 0.077412 0.228075 0.072884
v 0.081051 0.219290 0.050291
v 0.077412 0.228075 0.050291
v 0.081051 0.219290 0.072884
v 0.077412 0.210505 0.050291
v 0.077412 0.210505 0.072884
v 0.059842 0.210505 0.072884
v 0.059830 0.210493 0.050305
v 0.059842 0.228075 0.072884
v 0.059842 0.228075 0.050291
v 0.059080 0.228837 0.072884
v 0.068627 0.232791 0.074616
v 0.068627 0.232791 0.072884
v 0.068627 0.231714 0.050291
v 0.068627 0.231714 0.072884
v 0.078174 0.228837 0.072884
v 0.082128 0.219290 0.072884
v 0.078174 0.209743 0.072884
v 0.068627 0.206866 0.072884
v 0.068627 0.205788 0.072884
v 0.059080 0.209743 0.072884
v 0.056203 0.219290 0.072884
v 0.055125 0.219290 0.072884
v 0.068627 0.231445 0.074616
v 0.077221 0.227885 0.081374
v 0.077221 0.227885 0.074616
v 0.055125 0.219290 0.074616
v 0.078174 0.209743 0.074616
v 0.068627 0.205788 0.074616
v 0.082128 0.219290 0.074616
v 0.078174 0.228837 0.074616
v 0.059080 0.228837 0.074616
v 0.059080 0.209743 0.074616
v 0.080782 0.219290 0.074616
v 0.077221 0.210695 0.074616
v 0.068627 0.207135 0.074616
v 0.056472 0.219290 0.074616
v 0.060032 0.210695 0.074616
v 0.060032 0.227885 0.074616
v 0.077221 0.210695 0.081374
v 0.068627 0.208132 0.082889
v 0.068627 0.207135 0.081374
v 0.060032 0.227885 0.081374
v 0.060032 0.210695 0.081374
v 0.068627 0.231445 0.081374
v 0.056472 0.219290 0.081374
v 0.080782 0.219290 0.081374
v 0.076517 0.227180 0.082889
v 0.060737 0.227180 0.082889
v 0.060737 0.211400 0.082889
v 0.079785 0.219290 0.082889
v 0.068627 0.230448 0.082889
v 0.057469 0.219290 0.082889
v 0.076517 0.211400 0.082889
v 0.068627 0.210790 0.041864
v 0.060127 0.219290 0.041864
v 0.068627 0.227790 0.041864
v 0.074637 0.225300 0.041864
v 0.077127 0.219290 0.041864
v 0.074637 0.213279 0.041864
v 0.062616 0.213279 0.041864
v 0.062616 0.225300 0.041864
vn 0.9239 0.3827 -0.0000
vn 0.9239 -0.3827 -0.0000
vn 0.3826 -0.9239 -0.0000
vn -0.3830 -0.9237 0.0007
vn -0.3828 -0.9238 0.0002
vn -0.9238 -0.3828 0.0002
vn -0.9239 -0.3827 0.0001
vn -0.9238 -0.3829 0.0002
vn -0.9239 0.3828 -0.0000
vn -0.3827 0.9239 -0.0000
vn 0.3827 0.9239 -0.0000
vn -0.0000 -0.0000 -1.0000
vn -0.9239 -0.3827 -0.0000
vn 0.3827 -0.9239 -0.0000
vn -0.9239 0.3827 -0.0000
vn -0.3827 -0.9239 -0.0000
vn -0.0000 -0.0000 1.0000
vn 0.3270 -0.7895 0.5194
vn 0.7895 0.3270 0.5193
vn 0.3270 0.7895 0.5193
vn -0.7895 0.3270 0.5194
vn -0.3270 -0.7895 0.5194
vn 0.7895 -0.3270 0.5193
vn -0.3270 0.7895 0.5194
vn -0.7895 -0.3270 0.5193
vn 0.3827 -0.9239 0.0002
vn 0.3827 -0.9239 0.0005
vn 0.3827 -0.9239 0.0003
vn -0.3827 -0.9239 0.0003
vn -0.3827 -0.9239 0.0001
vn -0.9239 0.3827 -0.0001
vn -0.0001 -0.0001 -1.0000
vn 0.0001 -0.0000 -1.0000
vn 0.7895 0.3270 0.5194
vn 0.3270 0.7895 0.5194
vn -0.7895 0.3270 0.5193
vn 0.7895 -0.3270 0.5194
vn -0.7895 -0.3270 0.5194
vt 1.000000 0.000000
vt 0.875000 0.500000
vt 1.000000 0.500000
vt 0.875000 0.000000
vt 0.750000 0.500000
vt 0.750000 0.000000
vt 0.625000 0.500000
vt 0.500000 0.000000
vt 0.500000 0.500000
vt 0.375000 0.500000
vt 0.250000 0.000000
vt 0.250000 0.500000
vt 0.010000 0.750000
vt 0.080294 0.580294
vt 0.125000 0.500000
vt 0.125000 0.000000
vt 0.000000 0.500000
vt 0.580294 0.919706
vt 0.510000 0.750000
vt 0.580294 0.580294
vt 0.250000 0.510000
vt 0.419706 0.580294
vt 0.490000 0.750000
vt 0.419706 0.919706
vt 0.250000 0.990000
vt 0.080294 0.919706
vt 0.097224 0.597224
vt 0.250000 0.533942
vt 0.402776 0.597224
vt 0.466058 0.750000
vt 0.402776 0.902776
vt 0.097224 0.902776
vt 0.250000 0.966058
vt 0.033942 0.750000
vt 0.000000 0.000000
vt 0.625000 0.000000
vt 0.375000 0.000000
vt 0.750000 0.510000
vt 0.919706 0.919706
vt 0.919706 0.580294
vt 0.990000 0.750000
vt 0.750000 0.990000
s 0
usemtl 9K32M_Strela-2M_1_Material_6
f 3/1/1 4/2/1 5/3/1
f 6/4/2 7/5/2 4/2/2
f 8/6/3 1/7/3 7/5/3
f 1/7/4 9/8/5 10/9/4
f 9/8/6 2/10/7 10/9/8
f 2/10/9 11/11/9 12/12/9
f 13/13/10 14/14/10 15/14/10
f 11/11/10 16/15/10 12/12/10
f 17/16/11 5/17/11 16/15/11
f 2/18/12 12/19/12 16/20/12
f 18/21/12 6/22/12 3/21/12
f 19/22/12 8/23/12 6/22/12
f 20/23/12 21/24/12 8/23/12
f 22/24/12 9/25/12 21/24/12
f 23/25/12 24/26/12 9/25/12
f 13/13/12 24/26/12 25/26/12
f 15/14/12 11/13/12 13/13/12
f 18/21/12 17/14/12 15/14/12
f 26/27/11 27/28/11 28/28/11
f 23/25/13 29/26/13 25/26/13
f 22/24/14 30/23/14 31/24/14
f 18/21/1 32/22/1 19/22/1
f 15/14/11 33/21/11 18/21/11
f 25/26/15 34/13/15 13/13/15
f 22/24/16 35/25/16 23/25/16
f 19/22/2 30/23/2 20/23/2
f 36/29/17 33/21/17 28/28/17
f 37/30/17 32/22/17 36/29/17
f 37/30/17 31/24/17 30/23/17
f 38/31/17 35/25/17 31/24/17
f 39/32/17 35/25/17 40/33/17
f 41/34/17 29/26/17 39/32/17
f 41/34/17 14/14/17 34/13/17
f 28/28/17 14/14/17 26/27/17
f 42/30/18 43/31/18 44/31/18
f 39/32/15 45/34/15 41/34/15
f 38/31/16 46/33/16 40/33/16
f 36/29/2 42/30/2 37/30/2
f 41/34/10 47/27/10 26/27/10
f 40/33/13 48/32/13 39/32/13
f 37/30/14 44/31/14 38/31/14
f 28/28/1 49/29/1 36/29/1
f 50/28/17 51/34/17 52/33/17
f 27/28/19 53/29/19 49/29/19
f 27/28/20 54/27/20 50/28/20
f 45/34/21 55/32/21 51/34/21
f 46/33/22 43/31/22 52/33/22
s 1
f 49/29/23 56/30/23 42/30/23
s 0
f 47/27/24 51/34/24 54/27/24
f 46/33/25 55/32/25 48/32/25
f 57/8/12 58/11/12 59/35/12
f 3/1/1 6/4/1 4/2/1
f 6/4/2 8/6/2 7/5/2
f 8/6/26 21/36/27 1/7/28
f 1/7/29 21/36/30 9/8/30
f 9/8/13 24/37/13 2/10/13
f 2/10/15 24/37/31 11/11/31
f 13/13/10 34/13/10 14/14/10
f 11/11/10 17/16/10 16/15/10
f 17/16/11 3/35/11 5/17/11
f 16/20/32 5/38/32 1/39/32
f 5/38/33 4/40/33 1/39/33
f 4/40/12 7/41/12 1/39/12
f 1/39/12 10/42/12 16/20/12
f 10/42/12 2/18/12 16/20/12
f 18/21/12 19/22/12 6/22/12
f 19/22/12 20/23/12 8/23/12
f 20/23/12 22/24/12 21/24/12
f 22/24/12 23/25/12 9/25/12
f 23/25/12 25/26/12 24/26/12
f 13/13/12 11/13/12 24/26/12
f 15/14/12 17/14/12 11/13/12
f 18/21/12 3/21/12 17/14/12
f 26/27/11 47/27/11 27/28/11
f 23/25/13 35/25/13 29/26/13
f 22/24/14 20/23/14 30/23/14
f 18/21/1 33/21/1 32/22/1
f 15/14/11 14/14/11 33/21/11
f 25/26/15 29/26/15 34/13/15
f 22/24/16 31/24/16 35/25/16
f 19/22/2 32/22/2 30/23/2
f 36/29/17 32/22/17 33/21/17
f 37/30/17 30/23/17 32/22/17
f 37/30/17 38/31/17 31/24/17
f 38/31/17 40/33/17 35/25/17
f 39/32/17 29/26/17 35/25/17
f 41/34/17 34/13/17 29/26/17
f 41/34/17 26/27/17 14/14/17
f 28/28/17 33/21/17 14/14/17
f 42/30/18 56/30/18 43/31/18
f 39/32/15 48/32/15 45/34/15
f 38/31/16 44/31/16 46/33/16
f 36/29/2 49/29/2 42/30/2
f 41/34/10 45/34/10 47/27/10
f 40/33/13 46/33/13 48/32/13
f 37/30/14 42/30/14 44/31/14
f 28/28/1 27/28/1 49/29/1
f 56/30/17 53/29/17 50/28/17
f 50/28/17 54/27/17 51/34/17
f 51/34/17 55/32/17 52/33/17
f 52/33/17 43/31/17 56/30/17
f 56/30/17 50/28/17 52/33/17
f 27/28/34 50/28/34 53/29/34
f 27/28/35 47/27/35 54/27/35
f 45/34/36 48/32/36 55/32/36
f 46/33/22 44/31/22 43/31/22
f 49/29/37 53/29/37 56/30/37
f 47/27/24 45/34/24 51/34/24
f 46/33/38 52/33/38 55/32/38
f 59/35/12 60/4/12 57/8/12
f 60/4/12 61/6/12 57/8/12
f 61/6/12 62/36/12 57/8/12
f 57/8/12 63/37/12 58/11/12
f 58/11/12 64/16/12 59/35/12
